Model Std One_CONVERTED.ufo
<glyph name="exclam" format="2">
  <advance width="575"/>
  <unicode hex="0021"/>
  <outline>
    <contour>
      <point x="68" y="109" type="line"/>
      <point x="386" y="887" type="line"/>
      <point x="365" y="887" type="line"/>
      <point x="65" y="109" type="line"/>
    </contour>
    <contour>
      <point x="6" y="15" type="curve"/>
      <point x="3" y="4"/>
      <point x="8" y="-8"/>
      <point x="22" y="-8" type="curve" smooth="yes"/>
      <point x="35" y="-8"/>
      <point x="49" y="1"/>
      <point x="53" y="15" type="curve"/>
      <point x="58" y="29"/>
      <point x="50" y="39"/>
      <point x="38" y="39" type="curve" smooth="yes"/>
      <point x="24" y="39"/>
      <point x="11" y="29"/>
    </contour>
  </outline>
</glyph>
<glyph name="zero" format="2">
  <advance width="532"/>
  <unicode hex="0030"/>
  <outline>
    <contour>
      <point x="54" y="327" type="curve" smooth="yes"/>
      <point x="31" y="271"/>
      <point x="19" y="219"/>
      <point x="17" y="171" type="curve" smooth="yes"/>
      <point x="9" y="55"/>
      <point x="59" y="-27"/>
      <point x="156" y="-27" type="curve" smooth="yes"/>
      <point x="285" y="-27"/>
      <point x="465" y="129"/>
      <point x="541" y="320" type="curve" smooth="yes"/>
      <point x="565" y="374"/>
      <point x="576" y="428"/>
      <point x="579" y="474" type="curve" smooth="yes"/>
      <point x="588" y="590"/>
      <point x="531" y="672"/>
      <point x="437" y="672" type="curve" smooth="yes"/>
      <point x="303" y="672"/>
      <point x="131" y="518"/>
    </contour>
    <contour>
      <point x="64" y="322" type="curve" smooth="yes"/>
      <point x="142" y="513"/>
      <point x="308" y="668"/>
      <point x="436" y="668" type="curve" smooth="yes"/>
      <point x="527" y="668"/>
      <point x="574" y="589"/>
      <point x="566" y="476" type="curve" smooth="yes"/>
      <point x="563" y="431"/>
      <point x="551" y="379"/>
      <point x="529" y="324" type="curve" smooth="yes"/>
      <point x="452" y="132"/>
      <point x="286" y="-22"/>
      <point x="158" y="-22" type="curve" smooth="yes"/>
      <point x="66" y="-22"/>
      <point x="20" y="56"/>
      <point x="27" y="168" type="curve" smooth="yes"/>
      <point x="30" y="214"/>
      <point x="43" y="266"/>
    </contour>
  </outline>
</glyph>
<glyph name="B" format="2">
  <advance width="884"/>
  <unicode hex="0042"/>
  <outline>
    <contour>
      <point x="642" y="936" type="curve" smooth="yes"/>
      <point x="372" y="936"/>
      <point x="145" y="695"/>
      <point x="128" y="492" type="curve" smooth="yes"/>
      <point x="118" y="377"/>
      <point x="173" y="241"/>
      <point x="325" y="237" type="curve" smooth="yes"/>
      <point x="331" y="237"/>
      <point x="337" y="237"/>
      <point x="343" y="238" type="curve"/>
      <point x="273" y="141"/>
      <point x="178" y="53"/>
      <point x="54" y="23" type="curve"/>
      <point x="19" y="40"/>
      <point x="-18" y="53"/>
      <point x="-65" y="55" type="curve" smooth="yes"/>
      <point x="-133" y="55"/>
      <point x="-110" y="8"/>
      <point x="-37" y="8" type="curve" smooth="yes"/>
      <point x="-4" y="8"/>
      <point x="27" y="10"/>
      <point x="55" y="15" type="curve"/>
      <point x="103" y="-10" type="line" smooth="yes"/>
      <point x="169" y="-43"/>
      <point x="218" y="-76"/>
      <point x="329" y="-81" type="curve" smooth="yes"/>
      <point x="490" y="-88"/>
      <point x="764" y="30"/>
      <point x="784" y="274" type="curve" smooth="yes"/>
      <point x="795" y="396"/>
      <point x="703" y="442"/>
      <point x="667" y="455" type="curve"/>
      <point x="777" y="463"/>
      <point x="875" y="554"/>
      <point x="902" y="656" type="curve" smooth="yes"/>
      <point x="931" y="770"/>
      <point x="873" y="868"/>
      <point x="769" y="911" type="curve"/>
      <point x="780" y="923" type="line" smooth="yes"/>
      <point x="818" y="963"/>
      <point x="864" y="997"/>
      <point x="912" y="997" type="curve"/>
      <point x="912" y="1002" type="line"/>
      <point x="867" y="1002"/>
      <point x="818" y="967"/>
      <point x="766" y="912" type="curve"/>
      <point x="730" y="927"/>
      <point x="688" y="936"/>
    </contour>
    <contour>
      <point x="664" y="450" type="curve"/>
      <point x="664" y="451" type="line"/>
      <point x="697" y="441"/>
      <point x="777" y="402"/>
      <point x="768" y="284" type="curve" smooth="yes"/>
      <point x="749" y="48"/>
      <point x="484" y="-82"/>
      <point x="329" y="-77" type="curve" smooth="yes"/>
      <point x="204" y="-72"/>
      <point x="137" y="-20"/>
      <point x="65" y="17" type="curve"/>
      <point x="207" y="45"/>
      <point x="298" y="133"/>
      <point x="369" y="241" type="curve"/>
      <point x="485" y="261"/>
      <point x="588" y="360"/>
      <point x="602" y="478" type="curve" smooth="yes"/>
      <point x="608" y="533"/>
      <point x="593" y="575"/>
      <point x="566" y="603" type="curve"/>
      <point x="630" y="718"/>
      <point x="698" y="831"/>
      <point x="765" y="907" type="curve"/>
      <point x="867" y="863"/>
      <point x="908" y="761"/>
      <point x="886" y="665" type="curve" smooth="yes"/>
      <point x="859" y="560"/>
      <point x="766" y="460"/>
      <point x="652" y="460" type="curve"/>
      <point x="651" y="457" type="line"/>
      <point x="647" y="457" type="line"/>
      <point x="647" y="457"/>
      <point x="650" y="455"/>
      <point x="651" y="454" type="curve" smooth="yes"/>
      <point x="652" y="453"/>
      <point x="664" y="450"/>
    </contour>
    <contour>
      <point x="303" y="440" type="line"/>
      <point x="289" y="458"/>
      <point x="287" y="479"/>
      <point x="290" y="500" type="curve" smooth="yes"/>
      <point x="299" y="572"/>
      <point x="378" y="638"/>
      <point x="463" y="638" type="curve" smooth="yes"/>
      <point x="497" y="638"/>
      <point x="529" y="627"/>
      <point x="553" y="605" type="curve"/>
      <point x="503" y="518"/>
      <point x="456" y="430"/>
      <point x="417" y="356" type="curve" smooth="yes"/>
      <point x="397" y="318"/>
      <point x="373" y="279"/>
      <point x="346" y="242" type="curve"/>
      <point x="339" y="241"/>
      <point x="333" y="241"/>
      <point x="326" y="241" type="curve" smooth="yes"/>
      <point x="176" y="245"/>
      <point x="128" y="371"/>
      <point x="137" y="477" type="curve" smooth="yes"/>
      <point x="154" y="679"/>
      <point x="383" y="929"/>
      <point x="650" y="929" type="curve" smooth="yes"/>
      <point x="693" y="929"/>
      <point x="731" y="921"/>
      <point x="762" y="908" type="curve"/>
      <point x="694" y="833"/>
      <point x="622" y="724"/>
      <point x="557" y="611" type="curve"/>
      <point x="532" y="632"/>
      <point x="499" y="643"/>
      <point x="464" y="643" type="curve" smooth="yes"/>
      <point x="375" y="643"/>
      <point x="289" y="574"/>
      <point x="281" y="500" type="curve"/>
      <point x="277" y="476"/>
      <point x="284" y="457"/>
      <point x="299" y="438" type="curve"/>
    </contour>
    <contour>
      <point x="590" y="479" type="curve" smooth="yes"/>
      <point x="575" y="362"/>
      <point x="482" y="267"/>
      <point x="372" y="246" type="curve"/>
      <point x="397" y="283"/>
      <point x="419" y="322"/>
      <point x="440" y="363" type="curve" smooth="yes"/>
      <point x="476" y="434"/>
      <point x="518" y="515"/>
      <point x="562" y="595" type="curve"/>
      <point x="584" y="569"/>
      <point x="595" y="531"/>
    </contour>
    <contour>
      <point x="-37" y="13" type="curve" smooth="yes"/>
      <point x="-96" y="13"/>
      <point x="-101" y="50"/>
      <point x="-58" y="50" type="curve" smooth="yes"/>
      <point x="-19" y="49"/>
      <point x="13" y="37"/>
      <point x="45" y="21" type="curve"/>
      <point x="19" y="16"/>
      <point x="-8" y="13"/>
    </contour>
  </outline>
</glyph>
<glyph name="underscore" format="2">
  <advance width="504"/>
  <unicode hex="005F"/>
  <outline>
    <contour>
      <point x="1" y="-28" type="line"/>
      <point x="1" y="-28"/>
      <point x="329" y="-28"/>
      <point x="329" y="-28" type="curve"/>
      <point x="329" y="-23" type="line"/>
      <point x="329" y="-23"/>
      <point x="1" y="-23"/>
      <point x="1" y="-23" type="curve"/>
    </contour>
  </outline>
</glyph>
<glyph name="c" format="2">
  <advance width="346"/>
  <unicode hex="0063"/>
  <outline>
    <contour>
      <point x="181" y="437" type="line"/>
      <point x="140" y="386"/>
      <point x="159" y="335"/>
      <point x="194" y="335" type="curve" smooth="yes"/>
      <point x="265" y="335"/>
      <point x="318" y="434"/>
      <point x="326" y="485" type="curve" smooth="yes"/>
      <point x="331" y="522"/>
      <point x="310" y="563"/>
      <point x="268" y="563" type="curve" smooth="yes"/>
      <point x="177" y="563"/>
      <point x="4" y="382"/>
      <point x="-29" y="175" type="curve" smooth="yes"/>
      <point x="-49" y="60"/>
      <point x="-11" y="-12"/>
      <point x="57" y="-12" type="curve" smooth="yes"/>
      <point x="172" y="-12"/>
      <point x="282" y="140"/>
      <point x="349" y="280" type="curve"/>
      <point x="346" y="282" type="line"/>
      <point x="281" y="145"/>
      <point x="171" y="-6"/>
      <point x="57" y="-6" type="curve" smooth="yes"/>
      <point x="0" y="-6"/>
      <point x="-33" y="57"/>
      <point x="-15" y="167" type="curve" smooth="yes"/>
      <point x="19" y="364"/>
      <point x="180" y="558"/>
      <point x="267" y="558" type="curve" smooth="yes"/>
      <point x="304" y="558"/>
      <point x="318" y="527"/>
      <point x="314" y="493" type="curve"/>
      <point x="302" y="437"/>
      <point x="262" y="339"/>
      <point x="194" y="339" type="curve" smooth="yes"/>
      <point x="169" y="339"/>
      <point x="155" y="390"/>
      <point x="185" y="435" type="curve"/>
    </contour>
  </outline>
</glyph>
<glyph name="y" format="2">
  <advance width="570"/>
  <unicode hex="0079"/>
  <outline>
    <contour>
      <point x="228" y="565" type="curve" smooth="yes"/>
      <point x="158" y="565"/>
      <point x="62" y="416"/>
      <point x="0" y="282" type="curve"/>
      <point x="3" y="280" type="line"/>
      <point x="63" y="408"/>
      <point x="160" y="560"/>
      <point x="228" y="560" type="curve" smooth="yes"/>
      <point x="250" y="560"/>
      <point x="278" y="548"/>
      <point x="271" y="493" type="curve" smooth="yes"/>
      <point x="263" y="423"/>
      <point x="215" y="371"/>
      <point x="175" y="306" type="curve" smooth="yes"/>
      <point x="130" y="235"/>
      <point x="95" y="167"/>
      <point x="86" y="92" type="curve" smooth="yes"/>
      <point x="81" y="43"/>
      <point x="103" y="0"/>
      <point x="139" y="0" type="curve" smooth="yes"/>
      <point x="188" y="0"/>
      <point x="264" y="77"/>
      <point x="334" y="169" type="curve"/>
      <point x="316" y="115"/>
      <point x="299" y="60"/>
      <point x="281" y="11" type="curve" smooth="yes"/>
      <point x="257" y="-55" type="line"/>
      <point x="202" y="-91"/>
      <point x="149" y="-122"/>
      <point x="103" y="-149" type="curve" smooth="yes"/>
      <point x="23" y="-196"/>
      <point x="-68" y="-248"/>
      <point x="-122" y="-314" type="curve" smooth="yes"/>
      <point x="-148" y="-345"/>
      <point x="-163" y="-383"/>
      <point x="-164" y="-418" type="curve" smooth="yes"/>
      <point x="-167" y="-459"/>
      <point x="-146" y="-493"/>
      <point x="-94" y="-497" type="curve" smooth="yes"/>
      <point x="-23" y="-502"/>
      <point x="90" y="-444"/>
      <point x="168" y="-307" type="curve" smooth="yes"/>
      <point x="202" y="-246"/>
      <point x="230" y="-153"/>
      <point x="262" y="-58" type="curve"/>
      <point x="378" y="18"/>
      <point x="498" y="123"/>
      <point x="573" y="280" type="curve"/>
      <point x="570" y="282" type="line"/>
      <point x="497" y="128"/>
      <point x="378" y="26"/>
      <point x="264" y="-50" type="curve"/>
      <point x="271" y="-30"/>
      <point x="278" y="-9"/>
      <point x="286" y="11" type="curve" smooth="yes"/>
      <point x="305" y="64"/>
      <point x="327" y="128"/>
      <point x="352" y="194" type="curve"/>
      <point x="404" y="266"/>
      <point x="450" y="343"/>
      <point x="476" y="401" type="curve" smooth="yes"/>
      <point x="519" y="492"/>
      <point x="549" y="565"/>
      <point x="529" y="565" type="curve" smooth="yes"/>
      <point x="513" y="565"/>
      <point x="475" y="517"/>
      <point x="413" y="377" type="curve" smooth="yes"/>
      <point x="404" y="357" type="line" smooth="yes"/>
      <point x="380" y="302"/>
      <point x="360" y="244"/>
      <point x="340" y="186" type="curve"/>
      <point x="269" y="89"/>
      <point x="188" y="5"/>
      <point x="139" y="5" type="curve" smooth="yes"/>
      <point x="110" y="5"/>
      <point x="88" y="39"/>
      <point x="94" y="86" type="curve" smooth="yes"/>
      <point x="103" y="164"/>
      <point x="147" y="227"/>
      <point x="193" y="299" type="curve" smooth="yes"/>
      <point x="232" y="358"/>
      <point x="271" y="434"/>
      <point x="278" y="490" type="curve" smooth="yes"/>
      <point x="285" y="545"/>
      <point x="252" y="565"/>
    </contour>
    <contour>
      <point x="150" y="-306" type="curve" smooth="yes"/>
      <point x="78" y="-435"/>
      <point x="-28" y="-498"/>
      <point x="-93" y="-493" type="curve" smooth="yes"/>
      <point x="-138" y="-490"/>
      <point x="-162" y="-464"/>
      <point x="-160" y="-425" type="curve" smooth="yes"/>
      <point x="-158" y="-389"/>
      <point x="-140" y="-355"/>
      <point x="-114" y="-322" type="curve" smooth="yes"/>
      <point x="-57" y="-250"/>
      <point x="43" y="-189"/>
      <point x="104" y="-153" type="curve" smooth="yes"/>
      <point x="149" y="-127"/>
      <point x="201" y="-98"/>
      <point x="254" y="-63" type="curve"/>
      <point x="220" y="-156"/>
      <point x="187" y="-243"/>
    </contour>
    <contour>
      <point x="529" y="560" type="curve" smooth="yes"/>
      <point x="543" y="560"/>
      <point x="515" y="492"/>
      <point x="472" y="404" type="curve" smooth="yes"/>
      <point x="449" y="352"/>
      <point x="408" y="281"/>
      <point x="360" y="214" type="curve"/>
      <point x="379" y="262"/>
      <point x="399" y="311"/>
      <point x="421" y="357" type="curve" smooth="yes"/>
      <point x="428" y="372" type="line" smooth="yes"/>
      <point x="506" y="536"/>
      <point x="521" y="560"/>
    </contour>
  </outline>
</glyph>
<glyph name="exclamdown" format="2">
  <advance width="461"/>
  <unicode hex="00A1"/>
  <outline>
    <contour>
      <point x="276" y="325" type="line"/>
      <point x="-42" y="-453" type="line"/>
      <point x="-21" y="-453" type="line"/>
      <point x="279" y="325" type="line"/>
    </contour>
    <contour>
      <point x="338" y="419" type="curve"/>
      <point x="341" y="430"/>
      <point x="336" y="442"/>
      <point x="322" y="442" type="curve" smooth="yes"/>
      <point x="309" y="442"/>
      <point x="295" y="433"/>
      <point x="291" y="419" type="curve"/>
      <point x="286" y="405"/>
      <point x="294" y="395"/>
      <point x="306" y="395" type="curve" smooth="yes"/>
      <point x="320" y="395"/>
      <point x="333" y="405"/>
    </contour>
  </outline>
</glyph>
<glyph name="guillemotleft" format="2">
  <advance width="545"/>
  <unicode hex="00AB"/>
  <outline>
    <contour>
      <point x="320" y="119" type="line"/>
      <point x="149" y="274" type="line"/>
      <point x="320" y="429" type="line"/>
      <point x="318" y="433" type="line"/>
      <point x="127" y="274" type="line"/>
      <point x="318" y="115" type="line"/>
    </contour>
    <contour>
      <point x="417" y="119" type="line"/>
      <point x="246" y="274" type="line"/>
      <point x="417" y="429" type="line"/>
      <point x="415" y="433" type="line"/>
      <point x="224" y="274" type="line"/>
      <point x="415" y="115" type="line"/>
    </contour>
  </outline>
</glyph>
<glyph name="paragraph" format="2">
  <advance width="833"/>
  <unicode hex="00B6"/>
  <outline>
    <contour>
      <point x="14" y="-123" type="line"/>
      <point x="468" y="767" type="line"/>
      <point x="506" y="763"/>
      <point x="543" y="752"/>
      <point x="576" y="735" type="curve"/>
      <point x="480" y="548"/>
      <point x="140" y="-121"/>
      <point x="140" y="-121" type="curve"/>
      <point x="144" y="-123" type="line"/>
      <point x="144" y="-123"/>
      <point x="485" y="545"/>
      <point x="580" y="733" type="curve"/>
      <point x="648" y="697"/>
      <point x="698" y="636"/>
      <point x="698" y="570" type="curve" smooth="yes"/>
      <point x="698" y="561"/>
      <point x="697" y="552"/>
      <point x="695" y="543" type="curve"/>
      <point x="699" y="543" type="line"/>
      <point x="701" y="552"/>
      <point x="702" y="561"/>
      <point x="702" y="570" type="curve" smooth="yes"/>
      <point x="702" y="678"/>
      <point x="574" y="772"/>
      <point x="444" y="772" type="curve" smooth="yes"/>
      <point x="263" y="772"/>
      <point x="118" y="656"/>
      <point x="118" y="489" type="curve" smooth="yes"/>
      <point x="118" y="421"/>
      <point x="144" y="350"/>
      <point x="223" y="297" type="curve"/>
      <point x="10" y="-121" type="line"/>
    </contour>
    <contour>
      <point x="122" y="489" type="curve" smooth="yes"/>
      <point x="122" y="654"/>
      <point x="265" y="768"/>
      <point x="444" y="768" type="curve" smooth="yes"/>
      <point x="450" y="768"/>
      <point x="456" y="768"/>
      <point x="463" y="767" type="curve"/>
      <point x="225" y="300" type="line"/>
      <point x="147" y="352"/>
      <point x="122" y="422"/>
    </contour>
  </outline>
</glyph>
<glyph name="periodcentered" format="2">
  <advance width="402"/>
  <unicode hex="00B7"/>
  <outline>
    <contour>
      <point x="166" y="311" type="curve"/>
      <point x="163" y="300"/>
      <point x="168" y="288"/>
      <point x="182" y="288" type="curve" smooth="yes"/>
      <point x="195" y="288"/>
      <point x="209" y="297"/>
      <point x="213" y="311" type="curve"/>
      <point x="218" y="325"/>
      <point x="210" y="335"/>
      <point x="198" y="335" type="curve" smooth="yes"/>
      <point x="184" y="335"/>
      <point x="171" y="325"/>
    </contour>
  </outline>
</glyph>
<glyph name="guillemotright" format="2">
  <advance width="583"/>
  <unicode hex="00BB"/>
  <outline>
    <contour>
      <point x="251" y="115" type="line"/>
      <point x="442" y="274" type="line"/>
      <point x="251" y="433" type="line"/>
      <point x="249" y="429" type="line"/>
      <point x="420" y="274" type="line"/>
      <point x="249" y="119" type="line"/>
    </contour>
    <contour>
      <point x="154" y="115" type="line"/>
      <point x="345" y="274" type="line"/>
      <point x="154" y="433" type="line"/>
      <point x="152" y="429" type="line"/>
      <point x="323" y="274" type="line"/>
      <point x="152" y="119" type="line"/>
    </contour>
  </outline>
</glyph>
<glyph name="onequarter" format="2">
  <advance width="840"/>
  <unicode hex="00BC"/>
  <outline>
    <contour>
      <point x="581" y="540" type="line"/>
      <point x="613" y="532"/>
      <point x="621" y="486"/>
      <point x="621" y="458" type="curve"/>
      <point x="617" y="312"/>
      <point x="465" y="120"/>
      <point x="366" y="36" type="curve"/>
      <point x="348" y="36"/>
      <point x="340" y="24"/>
      <point x="340" y="16" type="curve" smooth="yes"/>
      <point x="340" y="15"/>
      <point x="341" y="13"/>
      <point x="341" y="11" type="curve"/>
      <point x="350" y="10" type="line"/>
      <point x="349" y="12"/>
      <point x="349" y="14"/>
      <point x="349" y="15" type="curve" smooth="yes"/>
      <point x="349" y="17" type="line"/>
      <point x="350" y="18" type="line"/>
      <point x="362" y="28" type="line"/>
      <point x="365" y="29"/>
      <point x="369" y="30"/>
      <point x="374" y="30" type="curve" smooth="yes"/>
      <point x="433" y="30"/>
      <point x="466" y="1"/>
      <point x="534" y="-5" type="curve"/>
      <point x="520" y="-38"/>
      <point x="507" y="-70"/>
      <point x="496" y="-100" type="curve"/>
      <point x="511" y="-100" type="line"/>
      <point x="547" y="-5" type="line"/>
      <point x="552" y="-5"/>
      <point x="556" y="-6"/>
      <point x="561" y="-6" type="curve" smooth="yes"/>
      <point x="592" y="-6"/>
      <point x="626" y="1"/>
      <point x="649" y="17" type="curve" smooth="yes"/>
      <point x="670" y="31"/>
      <point x="682" y="58"/>
      <point x="680" y="87" type="curve"/>
      <point x="677" y="87" type="line"/>
      <point x="680" y="62"/>
      <point x="664" y="38"/>
      <point x="643" y="24" type="curve" smooth="yes"/>
      <point x="620" y="8"/>
      <point x="590" y="-2"/>
      <point x="561" y="-2" type="curve" smooth="yes"/>
      <point x="549" y="-2" type="line"/>
      <point x="614" y="162"/>
      <point x="696" y="345"/>
      <point x="746" y="397" type="curve"/>
      <point x="744" y="398" type="line"/>
      <point x="688" y="342"/>
      <point x="602" y="160"/>
      <point x="535" y="-1" type="curve"/>
      <point x="467" y="5"/>
      <point x="435" y="34"/>
      <point x="371" y="36" type="curve"/>
      <point x="470" y="123"/>
      <point x="622" y="314"/>
      <point x="625" y="459" type="curve" smooth="yes"/>
      <point x="626" y="487"/>
      <point x="614" y="535"/>
      <point x="581" y="543" type="curve"/>
    </contour>
    <contour>
      <point x="200" y="417" type="line"/>
      <point x="196" y="431"/>
      <point x="194" y="444"/>
      <point x="194" y="456" type="curve" smooth="yes"/>
      <point x="196" y="527"/>
      <point x="272" y="581"/>
      <point x="336" y="621" type="curve"/>
      <point x="282" y="545"/>
      <point x="215" y="417"/>
      <point x="170" y="300" type="curve"/>
      <point x="183" y="300" type="line"/>
      <point x="230" y="422"/>
      <point x="293" y="552"/>
      <point x="343" y="625" type="curve"/>
      <point x="363" y="637" type="line" smooth="yes"/>
      <point x="380" y="648"/>
      <point x="401" y="662"/>
      <point x="410" y="670" type="curve" smooth="yes"/>
      <point x="422" y="680"/>
      <point x="418" y="690"/>
      <point x="408" y="690" type="curve" smooth="yes"/>
      <point x="393" y="690"/>
      <point x="369" y="665"/>
      <point x="340" y="626" type="curve"/>
      <point x="278" y="587"/>
      <point x="194" y="537"/>
      <point x="192" y="462" type="curve" smooth="yes"/>
      <point x="191" y="448"/>
      <point x="194" y="432"/>
      <point x="199" y="418" type="curve"/>
    </contour>
    <contour>
      <point x="402" y="682" type="curve" smooth="yes"/>
      <point x="410" y="682"/>
      <point x="412" y="675"/>
      <point x="403" y="668" type="curve"/>
      <point x="394" y="660"/>
      <point x="379" y="650"/>
      <point x="362" y="640" type="curve" smooth="yes"/>
      <point x="346" y="630" type="line"/>
      <point x="369" y="662"/>
      <point x="389" y="682"/>
    </contour>
    <contour>
      <point x="137" y="-123" type="line"/>
      <point x="137" y="-123"/>
      <point x="594" y="773"/>
      <point x="594" y="773" type="curve"/>
      <point x="590" y="775" type="line"/>
      <point x="590" y="775"/>
      <point x="133" y="-121"/>
      <point x="133" y="-121" type="curve"/>
    </contour>
  </outline>
</glyph>
<glyph name="threequarters" format="2">
  <advance width="997"/>
  <unicode hex="00BE"/>
  <outline>
    <contour>
      <point x="360" y="438" type="curve" smooth="yes"/>
      <point x="365" y="439"/>
      <point x="371" y="441"/>
      <point x="376" y="443" type="curve"/>
      <point x="405" y="424"/>
      <point x="423" y="389"/>
      <point x="423" y="348" type="curve" smooth="yes"/>
      <point x="423" y="228"/>
      <point x="291" y="73"/>
      <point x="126" y="73" type="curve" smooth="yes"/>
      <point x="97" y="73"/>
      <point x="30" y="88"/>
      <point x="34" y="136" type="curve"/>
      <point x="34" y="141"/>
      <point x="35" y="145"/>
      <point x="40" y="151" type="curve"/>
      <point x="38" y="152" type="line"/>
      <point x="29" y="143"/>
      <point x="26" y="137"/>
      <point x="25" y="127" type="curve" smooth="yes"/>
      <point x="22" y="82"/>
      <point x="96" y="68"/>
      <point x="126" y="68" type="curve" smooth="yes"/>
      <point x="273" y="68"/>
      <point x="438" y="200"/>
      <point x="438" y="338" type="curve" smooth="yes"/>
      <point x="438" y="384"/>
      <point x="415" y="423"/>
      <point x="381" y="445" type="curve"/>
      <point x="452" y="474"/>
      <point x="510" y="547"/>
      <point x="514" y="601" type="curve" smooth="yes"/>
      <point x="518" y="657"/>
      <point x="477" y="684"/>
      <point x="426" y="684" type="curve" smooth="yes"/>
      <point x="360" y="684"/>
      <point x="278" y="625"/>
      <point x="273" y="559" type="curve" smooth="yes"/>
      <point x="272" y="545"/>
      <point x="278" y="520"/>
      <point x="298" y="519" type="curve"/>
      <point x="300" y="521" type="line"/>
      <point x="283" y="523"/>
      <point x="281" y="542"/>
      <point x="283" y="556" type="curve"/>
      <point x="288" y="620"/>
      <point x="363" y="681"/>
      <point x="426" y="681" type="curve" smooth="yes"/>
      <point x="470" y="681"/>
      <point x="504" y="658"/>
      <point x="500" y="606" type="curve" smooth="yes"/>
      <point x="495" y="553"/>
      <point x="444" y="477"/>
      <point x="375" y="449" type="curve"/>
      <point x="359" y="458"/>
      <point x="340" y="464"/>
      <point x="320" y="464" type="curve" smooth="yes"/>
      <point x="300" y="464"/>
      <point x="286" y="456"/>
      <point x="286" y="449" type="curve"/>
      <point x="285" y="441"/>
      <point x="301" y="434"/>
      <point x="326" y="434" type="curve" smooth="yes"/>
      <point x="337" y="434"/>
      <point x="345" y="435"/>
    </contour>
    <contour>
      <point x="745" y="540" type="line"/>
      <point x="777" y="532"/>
      <point x="785" y="486"/>
      <point x="785" y="458" type="curve"/>
      <point x="781" y="312"/>
      <point x="629" y="120"/>
      <point x="530" y="36" type="curve"/>
      <point x="512" y="36"/>
      <point x="504" y="24"/>
      <point x="504" y="16" type="curve" smooth="yes"/>
      <point x="504" y="15"/>
      <point x="505" y="13"/>
      <point x="505" y="11" type="curve"/>
      <point x="514" y="10" type="line"/>
      <point x="513" y="12"/>
      <point x="513" y="14"/>
      <point x="513" y="15" type="curve" smooth="yes"/>
      <point x="513" y="17" type="line"/>
      <point x="514" y="18" type="line"/>
      <point x="526" y="28" type="line"/>
      <point x="529" y="29"/>
      <point x="533" y="30"/>
      <point x="538" y="30" type="curve" smooth="yes"/>
      <point x="597" y="30"/>
      <point x="630" y="1"/>
      <point x="698" y="-5" type="curve"/>
      <point x="684" y="-38"/>
      <point x="671" y="-70"/>
      <point x="660" y="-100" type="curve"/>
      <point x="675" y="-100" type="line"/>
      <point x="711" y="-5" type="line"/>
      <point x="716" y="-5"/>
      <point x="720" y="-6"/>
      <point x="725" y="-6" type="curve" smooth="yes"/>
      <point x="756" y="-6"/>
      <point x="790" y="1"/>
      <point x="813" y="17" type="curve" smooth="yes"/>
      <point x="834" y="31"/>
      <point x="846" y="58"/>
      <point x="844" y="87" type="curve"/>
      <point x="841" y="87" type="line"/>
      <point x="844" y="62"/>
      <point x="828" y="38"/>
      <point x="807" y="24" type="curve" smooth="yes"/>
      <point x="784" y="8"/>
      <point x="754" y="-2"/>
      <point x="725" y="-2" type="curve" smooth="yes"/>
      <point x="713" y="-2" type="line"/>
      <point x="778" y="162"/>
      <point x="860" y="345"/>
      <point x="910" y="397" type="curve"/>
      <point x="908" y="398" type="line"/>
      <point x="852" y="342"/>
      <point x="766" y="160"/>
      <point x="699" y="-1" type="curve"/>
      <point x="631" y="5"/>
      <point x="599" y="34"/>
      <point x="535" y="36" type="curve"/>
      <point x="634" y="123"/>
      <point x="786" y="314"/>
      <point x="789" y="459" type="curve" smooth="yes"/>
      <point x="790" y="487"/>
      <point x="778" y="535"/>
      <point x="745" y="543" type="curve"/>
    </contour>
    <contour>
      <point x="323" y="459" type="curve" smooth="yes"/>
      <point x="340" y="459"/>
      <point x="355" y="454"/>
      <point x="369" y="447" type="curve"/>
      <point x="364" y="445"/>
      <point x="359" y="443"/>
      <point x="354" y="442" type="curve" smooth="yes"/>
      <point x="339" y="439"/>
      <point x="332" y="439"/>
      <point x="326" y="439" type="curve" smooth="yes"/>
      <point x="307" y="439"/>
      <point x="298" y="444"/>
      <point x="298" y="450" type="curve" smooth="yes"/>
      <point x="298" y="454"/>
      <point x="309" y="459"/>
    </contour>
    <contour>
      <point x="330" y="-123" type="line"/>
      <point x="330" y="-123"/>
      <point x="787" y="773"/>
      <point x="787" y="773" type="curve"/>
      <point x="783" y="775" type="line"/>
      <point x="783" y="775"/>
      <point x="326" y="-121"/>
      <point x="326" y="-121" type="curve"/>
    </contour>
  </outline>
</glyph>
<glyph name="questiondown" format="2">
  <advance width="469"/>
  <unicode hex="00BF"/>
  <outline>
    <contour>
      <point x="359" y="310" type="line"/>
      <point x="335" y="62"/>
      <point x="-115" y="-54"/>
      <point x="-115" y="-295" type="curve" smooth="yes"/>
      <point x="-115" y="-385"/>
      <point x="-31" y="-445"/>
      <point x="62" y="-445" type="curve" smooth="yes"/>
      <point x="169" y="-445"/>
      <point x="282" y="-363"/>
      <point x="282" y="-277" type="curve" smooth="yes"/>
      <point x="282" y="-255"/>
      <point x="270" y="-218"/>
      <point x="244" y="-216" type="curve"/>
      <point x="243" y="-220" type="line"/>
      <point x="266" y="-223"/>
      <point x="270" y="-250"/>
      <point x="270" y="-269" type="curve" smooth="yes"/>
      <point x="270" y="-356"/>
      <point x="162" y="-441"/>
      <point x="58" y="-441" type="curve" smooth="yes"/>
      <point x="-25" y="-441"/>
      <point x="-98" y="-389"/>
      <point x="-98" y="-290" type="curve" smooth="yes"/>
      <point x="-98" y="-49"/>
      <point x="348" y="70"/>
      <point x="371" y="310" type="curve"/>
    </contour>
    <contour>
      <point x="452" y="419" type="curve"/>
      <point x="455" y="430"/>
      <point x="450" y="442"/>
      <point x="436" y="442" type="curve" smooth="yes"/>
      <point x="423" y="442"/>
      <point x="409" y="433"/>
      <point x="405" y="419" type="curve"/>
      <point x="400" y="405"/>
      <point x="408" y="395"/>
      <point x="420" y="395" type="curve" smooth="yes"/>
      <point x="434" y="395"/>
      <point x="447" y="405"/>
    </contour>
  </outline>
</glyph>
<glyph name="Igrave" format="2">
  <advance width="602"/>
  <unicode hex="00CC"/>
  <outline>
    <contour>
      <point x="613" y="936" type="curve" smooth="yes"/>
      <point x="330" y="936"/>
      <point x="104" y="673"/>
      <point x="108" y="466" type="curve" smooth="yes"/>
      <point x="110" y="357"/>
      <point x="170" y="237"/>
      <point x="311" y="237" type="curve" smooth="yes"/>
      <point x="316" y="237" type="line"/>
      <point x="231" y="105"/>
      <point x="104" y="-51"/>
      <point x="-50" y="-42" type="curve" smooth="yes"/>
      <point x="-107" y="-39"/>
      <point x="-199" y="16"/>
      <point x="-159" y="118" type="curve"/>
      <point x="-160" y="119" type="line"/>
      <point x="-206" y="6"/>
      <point x="-115" y="-46"/>
      <point x="-50" y="-49" type="curve" smooth="yes"/>
      <point x="136" y="-59"/>
      <point x="249" y="89"/>
      <point x="341" y="239" type="curve"/>
      <point x="469" y="254"/>
      <point x="586" y="369"/>
      <point x="583" y="503" type="curve" smooth="yes"/>
      <point x="582" y="547"/>
      <point x="566" y="580"/>
      <point x="543" y="604" type="curve"/>
      <point x="593" y="684"/>
      <point x="650" y="753"/>
      <point x="716" y="774" type="curve" smooth="yes"/>
      <point x="751" y="786"/>
      <point x="808" y="811"/>
      <point x="807" y="854" type="curve" smooth="yes"/>
      <point x="806" y="909"/>
      <point x="714" y="936"/>
    </contour>
    <contour>
      <point x="622" y="931" type="curve" smooth="yes"/>
      <point x="721" y="931"/>
      <point x="792" y="902"/>
      <point x="793" y="849" type="curve" smooth="yes"/>
      <point x="794" y="812"/>
      <point x="749" y="791"/>
      <point x="716" y="780" type="curve" smooth="yes"/>
      <point x="650" y="755"/>
      <point x="590" y="688"/>
      <point x="536" y="610" type="curve"/>
      <point x="510" y="632"/>
      <point x="476" y="643"/>
      <point x="441" y="643" type="curve" smooth="yes"/>
      <point x="346" y="643"/>
      <point x="259" y="566"/>
      <point x="261" y="487" type="curve" smooth="yes"/>
      <point x="261" y="469"/>
      <point x="268" y="453"/>
      <point x="281" y="438" type="curve"/>
      <point x="285" y="440" type="line"/>
      <point x="273" y="453"/>
      <point x="270" y="468"/>
      <point x="270" y="484" type="curve" smooth="yes"/>
      <point x="268" y="562"/>
      <point x="348" y="638"/>
      <point x="440" y="638" type="curve" smooth="yes"/>
      <point x="474" y="638"/>
      <point x="508" y="627"/>
      <point x="532" y="603" type="curve"/>
      <point x="466" y="506"/>
      <point x="410" y="392"/>
      <point x="368" y="321" type="curve" smooth="yes"/>
      <point x="354" y="297"/>
      <point x="337" y="269"/>
      <point x="319" y="241" type="curve"/>
      <point x="312" y="241" type="line" smooth="yes"/>
      <point x="173" y="241"/>
      <point x="119" y="352"/>
      <point x="117" y="452" type="curve" smooth="yes"/>
      <point x="113" y="658"/>
      <point x="343" y="931"/>
    </contour>
    <contour>
      <point x="398" y="335" type="line" smooth="yes"/>
      <point x="435" y="399"/>
      <point x="482" y="505"/>
      <point x="538" y="597" type="curve"/>
      <point x="557" y="575"/>
      <point x="570" y="544"/>
      <point x="571" y="504" type="curve" smooth="yes"/>
      <point x="574" y="371"/>
      <point x="465" y="259"/>
      <point x="343" y="243" type="curve"/>
    </contour>
    <contour>
      <point x="870" y="1128" type="line"/>
      <point x="751" y="1213" type="line" smooth="yes"/>
      <point x="747" y="1216"/>
      <point x="739" y="1220"/>
      <point x="731" y="1220" type="curve" smooth="yes"/>
      <point x="723" y="1220"/>
      <point x="719" y="1216"/>
      <point x="719" y="1209" type="curve" smooth="yes"/>
      <point x="719" y="1200"/>
      <point x="726" y="1195"/>
      <point x="735" y="1191" type="curve" smooth="yes"/>
      <point x="868" y="1126" type="line"/>
    </contour>
  </outline>
</glyph>
<glyph name="Oslash" format="2">
  <advance width="879"/>
  <unicode hex="00D8"/>
  <outline>
    <contour>
      <point x="118" y="-215" type="line"/>
      <point x="185" y="-85" type="line"/>
      <point x="211" y="-92"/>
      <point x="240" y="-96"/>
      <point x="271" y="-96" type="curve" smooth="yes"/>
      <point x="604" y="-96"/>
      <point x="887" y="309"/>
      <point x="887" y="595" type="curve" smooth="yes"/>
      <point x="887" y="736"/>
      <point x="822" y="864"/>
      <point x="680" y="881" type="curve"/>
      <point x="736" y="990" type="line"/>
      <point x="732" y="992" type="line"/>
      <point x="675" y="881" type="line"/>
      <point x="666" y="882"/>
      <point x="657" y="883"/>
      <point x="647" y="883" type="curve" smooth="yes"/>
      <point x="431" y="883"/>
      <point x="223" y="708"/>
      <point x="223" y="496" type="curve" smooth="yes"/>
      <point x="223" y="373"/>
      <point x="291" y="305"/>
      <point x="377" y="301" type="curve"/>
      <point x="183" y="-77" type="line"/>
      <point x="52" y="-41"/>
      <point x="-11" y="86"/>
      <point x="-11" y="238" type="curve" smooth="yes"/>
      <point x="-11" y="576"/>
      <point x="329" y="942"/>
      <point x="628" y="942" type="curve"/>
      <point x="626" y="946" type="line"/>
      <point x="329" y="946"/>
      <point x="-24" y="604"/>
      <point x="-24" y="253" type="curve" smooth="yes"/>
      <point x="-24" y="97"/>
      <point x="41" y="-42"/>
      <point x="180" y="-83" type="curve"/>
      <point x="114" y="-213" type="line"/>
    </contour>
    <contour>
      <point x="600" y="592" type="line"/>
      <point x="612" y="572"/>
      <point x="616" y="551"/>
      <point x="616" y="529" type="curve" smooth="yes"/>
      <point x="616" y="416"/>
      <point x="509" y="306"/>
      <point x="393" y="306" type="curve" smooth="yes"/>
      <point x="385" y="306" type="line"/>
      <point x="677" y="875" type="line"/>
      <point x="817" y="861"/>
      <point x="877" y="744"/>
      <point x="877" y="615" type="curve" smooth="yes"/>
      <point x="877" y="325"/>
      <point x="595" y="-87"/>
      <point x="262" y="-87" type="curve" smooth="yes"/>
      <point x="235" y="-87"/>
      <point x="211" y="-83"/>
      <point x="188" y="-78" type="curve"/>
      <point x="383" y="301" type="line"/>
      <point x="387" y="301" type="line" smooth="yes"/>
      <point x="513" y="301"/>
      <point x="629" y="413"/>
      <point x="629" y="528" type="curve" smooth="yes"/>
      <point x="629" y="553"/>
      <point x="619" y="575"/>
      <point x="605" y="596" type="curve"/>
    </contour>
    <contour>
      <point x="237" y="487" type="curve" smooth="yes"/>
      <point x="237" y="700"/>
      <point x="434" y="877"/>
      <point x="647" y="877" type="curve" smooth="yes"/>
      <point x="656" y="877"/>
      <point x="664" y="876"/>
      <point x="672" y="876" type="curve"/>
      <point x="380" y="306" type="line"/>
      <point x="301" y="312"/>
      <point x="237" y="369"/>
    </contour>
  </outline>
</glyph>
<glyph name="Thorn" format="2">
  <advance width="1035"/>
  <unicode hex="00DE"/>
  <outline>
    <contour>
      <point x="566" y="65" type="curve" smooth="yes"/>
      <point x="509" y="65"/>
      <point x="461" y="92"/>
      <point x="461" y="130" type="curve" smooth="yes"/>
      <point x="461" y="139"/>
      <point x="465" y="150"/>
      <point x="473" y="159" type="curve"/>
      <point x="471" y="161" type="line"/>
      <point x="461" y="150"/>
      <point x="457" y="138"/>
      <point x="457" y="130" type="curve" smooth="yes"/>
      <point x="457" y="90"/>
      <point x="507" y="61"/>
      <point x="566" y="61" type="curve" smooth="yes"/>
      <point x="728" y="61"/>
      <point x="990" y="203"/>
      <point x="990" y="436" type="curve" smooth="yes"/>
      <point x="990" y="542"/>
      <point x="898" y="606"/>
      <point x="809" y="606" type="curve" smooth="yes"/>
      <point x="726" y="606"/>
      <point x="647" y="567"/>
      <point x="578" y="512" type="curve"/>
      <point x="570" y="537"/>
      <point x="555" y="557"/>
      <point x="536" y="571" type="curve"/>
      <point x="592" y="650"/>
      <point x="654" y="712"/>
      <point x="725" y="730" type="curve"/>
      <point x="761" y="742"/>
      <point x="818" y="767"/>
      <point x="818" y="810" type="curve" smooth="yes"/>
      <point x="818" y="865"/>
      <point x="727" y="892"/>
      <point x="626" y="892" type="curve" smooth="yes"/>
      <point x="343" y="892"/>
      <point x="111" y="629"/>
      <point x="111" y="422" type="curve" smooth="yes"/>
      <point x="111" y="313"/>
      <point x="168" y="193"/>
      <point x="309" y="193" type="curve" smooth="yes"/>
      <point x="313" y="193" type="line"/>
      <point x="301" y="170" type="line" smooth="yes"/>
      <point x="227" y="30"/>
      <point x="62" y="-205"/>
      <point x="-129" y="-194" type="curve" smooth="yes"/>
      <point x="-186" y="-191"/>
      <point x="-276" y="-136"/>
      <point x="-234" y="-34" type="curve"/>
      <point x="-235" y="-33" type="line"/>
      <point x="-284" y="-146"/>
      <point x="-194" y="-198"/>
      <point x="-129" y="-201" type="curve" smooth="yes"/>
      <point x="99" y="-213"/>
      <point x="233" y="3"/>
      <point x="328" y="183" type="curve"/>
      <point x="330" y="186"/>
      <point x="331" y="191"/>
      <point x="333" y="194" type="curve"/>
      <point x="464" y="207"/>
      <point x="587" y="323"/>
      <point x="587" y="459" type="curve" smooth="yes"/>
      <point x="587" y="476"/>
      <point x="584" y="492"/>
      <point x="580" y="506" type="curve"/>
      <point x="650" y="562"/>
      <point x="728" y="602"/>
      <point x="809" y="602" type="curve" smooth="yes"/>
      <point x="903" y="602"/>
      <point x="974" y="537"/>
      <point x="974" y="444" type="curve" smooth="yes"/>
      <point x="974" y="215"/>
      <point x="721" y="65"/>
    </contour>
    <contour>
      <point x="635" y="887" type="curve" smooth="yes"/>
      <point x="734" y="887"/>
      <point x="804" y="858"/>
      <point x="804" y="805" type="curve" smooth="yes"/>
      <point x="804" y="768"/>
      <point x="759" y="747"/>
      <point x="726" y="736" type="curve" smooth="yes"/>
      <point x="655" y="714"/>
      <point x="590" y="652"/>
      <point x="531" y="574" type="curve"/>
      <point x="508" y="590"/>
      <point x="478" y="599"/>
      <point x="448" y="599" type="curve" smooth="yes"/>
      <point x="353" y="599"/>
      <point x="264" y="522"/>
      <point x="264" y="443" type="curve" smooth="yes"/>
      <point x="264" y="425"/>
      <point x="271" y="409"/>
      <point x="283" y="394" type="curve"/>
      <point x="287" y="396" type="line"/>
      <point x="276" y="409"/>
      <point x="273" y="424"/>
      <point x="273" y="440" type="curve" smooth="yes"/>
      <point x="273" y="518"/>
      <point x="355" y="594"/>
      <point x="447" y="594" type="curve" smooth="yes"/>
      <point x="476" y="594"/>
      <point x="505" y="586"/>
      <point x="527" y="569" type="curve"/>
      <point x="442" y="453"/>
      <point x="370" y="304"/>
      <point x="315" y="197" type="curve"/>
      <point x="310" y="197" type="line" smooth="yes"/>
      <point x="171" y="197"/>
      <point x="120" y="308"/>
      <point x="120" y="408" type="curve" smooth="yes"/>
      <point x="120" y="614"/>
      <point x="356" y="887"/>
    </contour>
    <contour>
      <point x="362" y="251" type="curve"/>
      <point x="409" y="325"/>
      <point x="482" y="424"/>
      <point x="571" y="498" type="curve"/>
      <point x="573" y="487"/>
      <point x="575" y="474"/>
      <point x="575" y="460" type="curve" smooth="yes"/>
      <point x="575" y="325"/>
      <point x="460" y="212"/>
      <point x="335" y="198" type="curve"/>
      <point x="344" y="215"/>
      <point x="353" y="232"/>
    </contour>
    <contour>
      <point x="532" y="565" type="curve"/>
      <point x="549" y="550"/>
      <point x="562" y="531"/>
      <point x="569" y="505" type="curve"/>
      <point x="491" y="440"/>
      <point x="425" y="356"/>
      <point x="378" y="285" type="curve"/>
      <point x="421" y="375"/>
      <point x="473" y="479"/>
    </contour>
  </outline>
</glyph>
<glyph name="ccedilla" format="2">
  <advance width="346"/>
  <unicode hex="00E7"/>
  <outline>
    <contour>
      <point x="181" y="437" type="line"/>
      <point x="140" y="386"/>
      <point x="159" y="335"/>
      <point x="194" y="335" type="curve" smooth="yes"/>
      <point x="265" y="335"/>
      <point x="318" y="434"/>
      <point x="326" y="485" type="curve" smooth="yes"/>
      <point x="331" y="522"/>
      <point x="310" y="563"/>
      <point x="268" y="563" type="curve" smooth="yes"/>
      <point x="177" y="563"/>
      <point x="4" y="382"/>
      <point x="-29" y="175" type="curve" smooth="yes"/>
      <point x="-47" y="72"/>
      <point x="-18" y="4"/>
      <point x="35" y="-9" type="curve"/>
      <point x="25" y="-39"/>
      <point x="49" y="-58"/>
      <point x="49" y="-84" type="curve" smooth="yes"/>
      <point x="49" y="-117"/>
      <point x="20" y="-165"/>
      <point x="-47" y="-177" type="curve"/>
      <point x="-47" y="-180" type="line"/>
      <point x="20" y="-167"/>
      <point x="63" y="-131"/>
      <point x="63" y="-97" type="curve" smooth="yes"/>
      <point x="63" y="-69"/>
      <point x="28" y="-42"/>
      <point x="40" y="-10" type="curve"/>
      <point x="45" y="-11"/>
      <point x="51" y="-12"/>
      <point x="57" y="-12" type="curve" smooth="yes"/>
      <point x="172" y="-12"/>
      <point x="282" y="140"/>
      <point x="349" y="280" type="curve"/>
      <point x="346" y="282" type="line"/>
      <point x="281" y="145"/>
      <point x="171" y="-6"/>
      <point x="57" y="-6" type="curve" smooth="yes"/>
      <point x="0" y="-6"/>
      <point x="-33" y="57"/>
      <point x="-15" y="167" type="curve" smooth="yes"/>
      <point x="19" y="364"/>
      <point x="180" y="558"/>
      <point x="267" y="558" type="curve" smooth="yes"/>
      <point x="304" y="558"/>
      <point x="318" y="527"/>
      <point x="314" y="493" type="curve"/>
      <point x="302" y="437"/>
      <point x="262" y="339"/>
      <point x="194" y="339" type="curve" smooth="yes"/>
      <point x="169" y="339"/>
      <point x="155" y="390"/>
      <point x="185" y="435" type="curve"/>
    </contour>
  </outline>
</glyph>
<glyph name="iacute" format="2">
  <advance width="187"/>
  <unicode hex="00ED"/>
  <outline>
    <contour>
      <point x="123" y="550" type="line"/>
      <point x="0" y="282" type="line"/>
      <point x="-55" y="161" type="line" smooth="yes"/>
      <point x="-95" y="72"/>
      <point x="-77" y="0"/>
      <point x="-35" y="0" type="curve" smooth="yes"/>
      <point x="34" y="0"/>
      <point x="129" y="146"/>
      <point x="190" y="280" type="curve"/>
      <point x="187" y="282" type="line"/>
      <point x="128" y="154"/>
      <point x="32" y="4"/>
      <point x="-34" y="4" type="curve" smooth="yes"/>
      <point x="-73" y="4"/>
      <point x="-83" y="72"/>
      <point x="-46" y="152" type="curve" smooth="yes"/>
      <point x="144" y="550" type="line"/>
    </contour>
    <contour>
      <point x="124" y="694" type="line"/>
      <point x="257" y="759" type="line" smooth="yes"/>
      <point x="266" y="763"/>
      <point x="273" y="768"/>
      <point x="273" y="777" type="curve" smooth="yes"/>
      <point x="273" y="784"/>
      <point x="269" y="788"/>
      <point x="261" y="788" type="curve" smooth="yes"/>
      <point x="253" y="788"/>
      <point x="245" y="784"/>
      <point x="241" y="781" type="curve" smooth="yes"/>
      <point x="122" y="696" type="line"/>
    </contour>
  </outline>
</glyph>
<glyph name="idieresis" format="2">
  <advance width="187"/>
  <unicode hex="00EF"/>
  <outline>
    <contour>
      <point x="123" y="550" type="line"/>
      <point x="0" y="282" type="line"/>
      <point x="-55" y="161" type="line" smooth="yes"/>
      <point x="-95" y="72"/>
      <point x="-77" y="0"/>
      <point x="-35" y="0" type="curve" smooth="yes"/>
      <point x="34" y="0"/>
      <point x="129" y="146"/>
      <point x="190" y="280" type="curve"/>
      <point x="187" y="282" type="line"/>
      <point x="128" y="154"/>
      <point x="32" y="4"/>
      <point x="-34" y="4" type="curve" smooth="yes"/>
      <point x="-73" y="4"/>
      <point x="-83" y="72"/>
      <point x="-46" y="152" type="curve" smooth="yes"/>
      <point x="144" y="550" type="line"/>
    </contour>
    <contour>
      <point x="129" y="735" type="curve"/>
      <point x="127" y="726"/>
      <point x="131" y="717"/>
      <point x="142" y="717" type="curve" smooth="yes"/>
      <point x="152" y="717"/>
      <point x="163" y="724"/>
      <point x="166" y="735" type="curve"/>
      <point x="170" y="746"/>
      <point x="164" y="754"/>
      <point x="154" y="754" type="curve" smooth="yes"/>
      <point x="143" y="754"/>
      <point x="133" y="746"/>
    </contour>
    <contour>
      <point x="234" y="735" type="curve"/>
      <point x="232" y="726"/>
      <point x="236" y="717"/>
      <point x="247" y="717" type="curve" smooth="yes"/>
      <point x="257" y="717"/>
      <point x="268" y="724"/>
      <point x="271" y="735" type="curve"/>
      <point x="275" y="746"/>
      <point x="269" y="754"/>
      <point x="259" y="754" type="curve" smooth="yes"/>
      <point x="248" y="754"/>
      <point x="238" y="746"/>
    </contour>
  </outline>
</glyph>
<glyph name="thorn" format="2">
  <advance width="388"/>
  <unicode hex="00FE"/>
  <outline>
    <contour>
      <point x="-298" y="-396" type="line"/>
      <point x="56" y="365" type="line"/>
      <point x="118" y="481"/>
      <point x="202" y="557"/>
      <point x="258" y="557" type="curve" smooth="yes"/>
      <point x="301" y="557"/>
      <point x="315" y="506"/>
      <point x="305" y="428" type="curve" smooth="yes"/>
      <point x="298" y="377"/>
      <point x="286" y="331"/>
      <point x="264" y="276" type="curve" smooth="yes"/>
      <point x="196" y="121"/>
      <point x="86" y="-7"/>
      <point x="17" y="-7" type="curve" smooth="yes"/>
      <point x="-32" y="-7"/>
      <point x="-46" y="27"/>
      <point x="-40" y="66" type="curve" smooth="yes"/>
      <point x="-35" y="102"/>
      <point x="-15" y="143"/>
      <point x="12" y="169" type="curve"/>
      <point x="11" y="172" type="line"/>
      <point x="-19" y="144"/>
      <point x="-43" y="102"/>
      <point x="-48" y="66" type="curve" smooth="yes"/>
      <point x="-54" y="24"/>
      <point x="-34" y="-12"/>
      <point x="17" y="-12" type="curve" smooth="yes"/>
      <point x="95" y="-12"/>
      <point x="213" y="113"/>
      <point x="279" y="271" type="curve" smooth="yes"/>
      <point x="299" y="324"/>
      <point x="314" y="370"/>
      <point x="321" y="420" type="curve" smooth="yes"/>
      <point x="332" y="505"/>
      <point x="306" y="563"/>
      <point x="260" y="563" type="curve" smooth="yes"/>
      <point x="211" y="563"/>
      <point x="136" y="504"/>
      <point x="82" y="422" type="curve"/>
      <point x="338" y="971" type="line"/>
      <point x="318" y="971" type="line"/>
      <point x="-316" y="-396" type="line"/>
    </contour>
  </outline>
</glyph>
<glyph name="aogonek" format="2">
  <advance width="446"/>
  <unicode hex="0105"/>
  <outline>
    <contour>
      <point x="237" y="6" type="line"/>
      <point x="236" y="6"/>
      <point x="236" y="5"/>
      <point x="235" y="5" type="curve"/>
      <point x="231" y="4"/>
      <point x="227" y="4"/>
      <point x="224" y="4" type="curve" smooth="yes"/>
      <point x="185" y="4"/>
      <point x="175" y="72"/>
      <point x="212" y="152" type="curve" smooth="yes"/>
      <point x="403" y="550" type="line"/>
      <point x="382" y="550" type="line"/>
      <point x="215" y="187" type="line" smooth="yes"/>
      <point x="161" y="69"/>
      <point x="71" y="-6"/>
      <point x="20" y="-6" type="curve" smooth="yes"/>
      <point x="-23" y="-6"/>
      <point x="-37" y="45"/>
      <point x="-27" y="123" type="curve" smooth="yes"/>
      <point x="-20" y="174"/>
      <point x="-8" y="220"/>
      <point x="14" y="275" type="curve" smooth="yes"/>
      <point x="82" y="430"/>
      <point x="192" y="558"/>
      <point x="261" y="558" type="curve" smooth="yes"/>
      <point x="310" y="558"/>
      <point x="324" y="524"/>
      <point x="318" y="485" type="curve" smooth="yes"/>
      <point x="313" y="449"/>
      <point x="293" y="408"/>
      <point x="266" y="382" type="curve"/>
      <point x="267" y="379" type="line"/>
      <point x="297" y="407"/>
      <point x="321" y="449"/>
      <point x="326" y="485" type="curve" smooth="yes"/>
      <point x="332" y="527"/>
      <point x="312" y="563"/>
      <point x="261" y="563" type="curve" smooth="yes"/>
      <point x="183" y="563"/>
      <point x="65" y="438"/>
      <point x="-1" y="280" type="curve" smooth="yes"/>
      <point x="-21" y="227"/>
      <point x="-36" y="181"/>
      <point x="-43" y="131" type="curve" smooth="yes"/>
      <point x="-54" y="46"/>
      <point x="-28" y="-12"/>
      <point x="18" y="-12" type="curve" smooth="yes"/>
      <point x="64" y="-12"/>
      <point x="142" y="50"/>
      <point x="193" y="136" type="curve"/>
      <point x="167" y="59"/>
      <point x="186" y="0"/>
      <point x="223" y="0" type="curve"/>
      <point x="170" y="-26"/>
      <point x="150" y="-60"/>
      <point x="150" y="-90" type="curve" smooth="yes"/>
      <point x="150" y="-118"/>
      <point x="172" y="-142"/>
      <point x="205" y="-142" type="curve" smooth="yes"/>
      <point x="214" y="-142"/>
      <point x="223" y="-140"/>
      <point x="232" y="-137" type="curve"/>
      <point x="230" y="-133" type="line"/>
      <point x="221" y="-136"/>
      <point x="212" y="-138"/>
      <point x="205" y="-138" type="curve" smooth="yes"/>
      <point x="179" y="-138"/>
      <point x="164" y="-119"/>
      <point x="164" y="-96" type="curve" smooth="yes"/>
      <point x="164" y="-63"/>
      <point x="181" y="-23"/>
      <point x="239" y="2" type="curve"/>
      <point x="306" y="20"/>
      <point x="392" y="155"/>
      <point x="449" y="280" type="curve"/>
      <point x="446" y="282" type="line"/>
      <point x="390" y="162"/>
      <point x="303" y="22"/>
      <point x="237" y="5" type="curve"/>
    </contour>
  </outline>
</glyph>
<glyph name="Dcroat" format="2">
  <advance width="961"/>
  <unicode hex="0110"/>
  <outline>
    <contour>
      <point x="-86" y="18" type="curve" smooth="yes"/>
      <point x="-52" y="18"/>
      <point x="-21" y="21"/>
      <point x="7" y="27" type="curve"/>
      <point x="92" y="-8"/>
      <point x="173" y="-77"/>
      <point x="318" y="-77" type="curve" smooth="yes"/>
      <point x="619" y="-77"/>
      <point x="934" y="220"/>
      <point x="950" y="539" type="curve" smooth="yes"/>
      <point x="959" y="709"/>
      <point x="882" y="873"/>
      <point x="710" y="922" type="curve"/>
      <point x="713" y="924"/>
      <point x="715" y="927"/>
      <point x="718" y="930" type="curve" smooth="yes"/>
      <point x="756" y="970"/>
      <point x="803" y="1005"/>
      <point x="851" y="1005" type="curve"/>
      <point x="851" y="1010" type="line"/>
      <point x="807" y="1010"/>
      <point x="757" y="976"/>
      <point x="706" y="923" type="curve"/>
      <point x="674" y="932"/>
      <point x="638" y="937"/>
      <point x="599" y="937" type="curve" smooth="yes"/>
      <point x="597" y="937" type="line" smooth="yes"/>
      <point x="326" y="936"/>
      <point x="105" y="693"/>
      <point x="95" y="490" type="curve" smooth="yes"/>
      <point x="88" y="380"/>
      <point x="141" y="253"/>
      <point x="274" y="235" type="curve"/>
      <point x="205" y="143"/>
      <point x="114" y="63"/>
      <point x="2" y="35" type="curve"/>
      <point x="-28" y="47"/>
      <point x="-59" y="56"/>
      <point x="-94" y="56" type="curve" smooth="yes"/>
      <point x="-144" y="56"/>
      <point x="-138" y="18"/>
    </contour>
    <contour>
      <point x="308" y="233" type="line" smooth="yes"/>
      <point x="487" y="233"/>
      <point x="652" y="372"/>
      <point x="667" y="540" type="curve" smooth="yes"/>
      <point x="675" y="637"/>
      <point x="628" y="696"/>
      <point x="564" y="716" type="curve"/>
      <point x="610" y="793"/>
      <point x="657" y="863"/>
      <point x="704" y="915" type="curve"/>
      <point x="866" y="875"/>
      <point x="941" y="730"/>
      <point x="933" y="559" type="curve" smooth="yes"/>
      <point x="917" y="246"/>
      <point x="620" y="-73"/>
      <point x="316" y="-73" type="curve" smooth="yes"/>
      <point x="179" y="-73"/>
      <point x="99" y="-9"/>
      <point x="16" y="29" type="curve"/>
      <point x="141" y="56"/>
      <point x="228" y="133"/>
      <point x="297" y="233" type="curve"/>
    </contour>
    <contour>
      <point x="597" y="927" type="curve" smooth="yes"/>
      <point x="608" y="927" type="line" smooth="yes"/>
      <point x="641" y="927"/>
      <point x="672" y="923"/>
      <point x="700" y="916" type="curve"/>
      <point x="652" y="864"/>
      <point x="602" y="795"/>
      <point x="554" y="719" type="curve"/>
      <point x="541" y="722"/>
      <point x="526" y="724"/>
      <point x="512" y="724" type="curve" smooth="yes"/>
      <point x="411" y="724"/>
      <point x="318" y="647"/>
      <point x="311" y="564" type="curve"/>
      <point x="307" y="537"/>
      <point x="316" y="515"/>
      <point x="334" y="494" type="curve"/>
      <point x="337" y="497" type="line"/>
      <point x="323" y="517"/>
      <point x="318" y="541"/>
      <point x="321" y="564" type="curve" smooth="yes"/>
      <point x="328" y="645"/>
      <point x="414" y="720"/>
      <point x="509" y="720" type="curve" smooth="yes"/>
      <point x="523" y="720"/>
      <point x="538" y="718"/>
      <point x="551" y="714" type="curve"/>
      <point x="490" y="617"/>
      <point x="431" y="509"/>
      <point x="380" y="415" type="curve"/>
      <point x="221" y="415" type="line"/>
      <point x="221" y="410" type="line"/>
      <point x="378" y="410" type="line"/>
      <point x="351" y="359" type="line" smooth="yes"/>
      <point x="330" y="319"/>
      <point x="305" y="278"/>
      <point x="277" y="239" type="curve"/>
      <point x="145" y="255"/>
      <point x="99" y="374"/>
      <point x="104" y="475" type="curve" smooth="yes"/>
      <point x="115" y="675"/>
      <point x="333" y="921"/>
    </contour>
    <contour>
      <point x="299" y="237" type="line"/>
      <point x="327" y="277"/>
      <point x="351" y="320"/>
      <point x="375" y="366" type="curve" smooth="yes"/>
      <point x="398" y="410" type="line"/>
      <point x="549" y="410" type="line"/>
      <point x="549" y="415" type="line"/>
      <point x="400" y="415" type="line"/>
      <point x="449" y="508"/>
      <point x="503" y="615"/>
      <point x="561" y="711" type="curve"/>
      <point x="618" y="692"/>
      <point x="660" y="637"/>
      <point x="652" y="541" type="curve" smooth="yes"/>
      <point x="637" y="373"/>
      <point x="483" y="237"/>
      <point x="309" y="237" type="curve" smooth="yes"/>
    </contour>
    <contour>
      <point x="-86" y="24" type="curve" smooth="yes"/>
      <point x="-124" y="24"/>
      <point x="-119" y="48"/>
      <point x="-86" y="48" type="curve" smooth="yes"/>
      <point x="-58" y="48"/>
      <point x="-32" y="42"/>
      <point x="-7" y="33" type="curve"/>
      <point x="-32" y="27"/>
      <point x="-59" y="24"/>
    </contour>
  </outline>
</glyph>
<glyph name="emacron" format="2">
  <advance width="345"/>
  <unicode hex="0113"/>
  <outline>
    <contour>
      <point x="345" y="282" type="line"/>
      <point x="280" y="145"/>
      <point x="170" y="-6"/>
      <point x="56" y="-6" type="curve" smooth="yes"/>
      <point x="-1" y="-6"/>
      <point x="-34" y="57"/>
      <point x="-16" y="167" type="curve" smooth="yes"/>
      <point x="-5" y="230"/>
      <point x="19" y="292"/>
      <point x="49" y="348" type="curve"/>
      <point x="51" y="325"/>
      <point x="77" y="292"/>
      <point x="124" y="292" type="curve" smooth="yes"/>
      <point x="206" y="292"/>
      <point x="311" y="403"/>
      <point x="320" y="491" type="curve" smooth="yes"/>
      <point x="325" y="525"/>
      <point x="306" y="563"/>
      <point x="267" y="563" type="curve" smooth="yes"/>
      <point x="176" y="563"/>
      <point x="3" y="382"/>
      <point x="-30" y="175" type="curve" smooth="yes"/>
      <point x="-50" y="60"/>
      <point x="-12" y="-12"/>
      <point x="56" y="-12" type="curve" smooth="yes"/>
      <point x="171" y="-12"/>
      <point x="281" y="140"/>
      <point x="348" y="280" type="curve"/>
    </contour>
    <contour>
      <point x="310" y="498" type="curve" smooth="yes"/>
      <point x="299" y="404"/>
      <point x="197" y="297"/>
      <point x="119" y="297" type="curve" smooth="yes"/>
      <point x="78" y="297"/>
      <point x="53" y="330"/>
      <point x="53" y="351" type="curve"/>
      <point x="50" y="351" type="line"/>
      <point x="114" y="469"/>
      <point x="207" y="558"/>
      <point x="266" y="558" type="curve" smooth="yes"/>
      <point x="300" y="558"/>
      <point x="313" y="530"/>
    </contour>
    <contour>
      <point x="186" y="708" type="line"/>
      <point x="186" y="708"/>
      <point x="442" y="708"/>
      <point x="442" y="708" type="curve"/>
      <point x="442" y="714" type="line"/>
      <point x="442" y="714"/>
      <point x="186" y="714"/>
      <point x="186" y="714" type="curve"/>
    </contour>
  </outline>
</glyph>
<glyph name="eogonek" format="2">
  <advance width="345"/>
  <unicode hex="0119"/>
  <outline>
    <contour>
      <point x="345" y="282" type="line"/>
      <point x="280" y="145"/>
      <point x="170" y="-6"/>
      <point x="56" y="-6" type="curve" smooth="yes"/>
      <point x="-1" y="-6"/>
      <point x="-34" y="57"/>
      <point x="-16" y="167" type="curve" smooth="yes"/>
      <point x="-5" y="230"/>
      <point x="19" y="292"/>
      <point x="49" y="348" type="curve"/>
      <point x="51" y="325"/>
      <point x="77" y="292"/>
      <point x="124" y="292" type="curve" smooth="yes"/>
      <point x="206" y="292"/>
      <point x="311" y="403"/>
      <point x="320" y="491" type="curve" smooth="yes"/>
      <point x="325" y="525"/>
      <point x="306" y="563"/>
      <point x="267" y="563" type="curve" smooth="yes"/>
      <point x="176" y="563"/>
      <point x="3" y="382"/>
      <point x="-30" y="175" type="curve" smooth="yes"/>
      <point x="-50" y="60"/>
      <point x="-12" y="-12"/>
      <point x="56" y="-12" type="curve" smooth="yes"/>
      <point x="65" y="-12"/>
      <point x="75" y="-11"/>
      <point x="84" y="-9" type="curve"/>
      <point x="43" y="-34"/>
      <point x="27" y="-63"/>
      <point x="27" y="-90" type="curve" smooth="yes"/>
      <point x="27" y="-118"/>
      <point x="49" y="-142"/>
      <point x="82" y="-142" type="curve" smooth="yes"/>
      <point x="91" y="-142"/>
      <point x="100" y="-140"/>
      <point x="109" y="-137" type="curve"/>
      <point x="107" y="-133" type="line"/>
      <point x="98" y="-136"/>
      <point x="89" y="-138"/>
      <point x="82" y="-138" type="curve" smooth="yes"/>
      <point x="56" y="-138"/>
      <point x="41" y="-119"/>
      <point x="41" y="-96" type="curve" smooth="yes"/>
      <point x="41" y="-65"/>
      <point x="55" y="-28"/>
      <point x="105" y="-3" type="curve"/>
      <point x="201" y="31"/>
      <point x="290" y="160"/>
      <point x="348" y="280" type="curve"/>
    </contour>
    <contour>
      <point x="310" y="498" type="curve" smooth="yes"/>
      <point x="299" y="404"/>
      <point x="197" y="297"/>
      <point x="119" y="297" type="curve" smooth="yes"/>
      <point x="78" y="297"/>
      <point x="53" y="330"/>
      <point x="53" y="351" type="curve"/>
      <point x="50" y="351" type="line"/>
      <point x="114" y="469"/>
      <point x="207" y="558"/>
      <point x="266" y="558" type="curve" smooth="yes"/>
      <point x="300" y="558"/>
      <point x="313" y="530"/>
    </contour>
  </outline>
</glyph>
<glyph name="dotlessi" format="2">
  <advance width="187"/>
  <unicode hex="0131"/>
  <outline>
    <contour>
      <point x="123" y="550" type="line"/>
      <point x="0" y="282" type="line"/>
      <point x="-55" y="161" type="line" smooth="yes"/>
      <point x="-95" y="72"/>
      <point x="-77" y="0"/>
      <point x="-35" y="0" type="curve" smooth="yes"/>
      <point x="34" y="0"/>
      <point x="129" y="146"/>
      <point x="190" y="280" type="curve"/>
      <point x="187" y="282" type="line"/>
      <point x="128" y="154"/>
      <point x="32" y="4"/>
      <point x="-34" y="4" type="curve" smooth="yes"/>
      <point x="-73" y="4"/>
      <point x="-83" y="72"/>
      <point x="-46" y="152" type="curve" smooth="yes"/>
      <point x="144" y="550" type="line"/>
    </contour>
  </outline>
</glyph>
<glyph name="lcommaaccent" format="2">
  <advance width="187"/>
  <unicode hex="013C"/>
  <outline>
    <contour>
      <point x="-78" y="-138" type="curve" smooth="yes"/>
      <point x="-93" y="-138"/>
      <point x="-107" y="-151"/>
      <point x="-107" y="-165" type="curve" smooth="yes"/>
      <point x="-107" y="-173"/>
      <point x="-103" y="-181"/>
      <point x="-92" y="-181" type="curve" smooth="yes"/>
      <point x="-90" y="-181"/>
      <point x="-86" y="-181"/>
      <point x="-84" y="-180" type="curve"/>
      <point x="-83" y="-183"/>
      <point x="-81" y="-187"/>
      <point x="-85" y="-194" type="curve"/>
      <point x="-99" y="-214"/>
      <point x="-114" y="-232"/>
      <point x="-134" y="-246" type="curve"/>
      <point x="-132" y="-250" type="line"/>
      <point x="-103" y="-230"/>
      <point x="-62" y="-189"/>
      <point x="-62" y="-159" type="curve" smooth="yes"/>
      <point x="-62" y="-146"/>
      <point x="-70" y="-138"/>
    </contour>
    <contour>
      <point x="316" y="971" type="line"/>
      <point x="-55" y="161" type="line" smooth="yes"/>
      <point x="-95" y="72"/>
      <point x="-77" y="0"/>
      <point x="-35" y="0" type="curve" smooth="yes"/>
      <point x="34" y="0"/>
      <point x="129" y="146"/>
      <point x="190" y="280" type="curve"/>
      <point x="187" y="282" type="line"/>
      <point x="128" y="154"/>
      <point x="32" y="4"/>
      <point x="-34" y="4" type="curve" smooth="yes"/>
      <point x="-73" y="4"/>
      <point x="-83" y="72"/>
      <point x="-46" y="152" type="curve" smooth="yes"/>
      <point x="336" y="971" type="line"/>
    </contour>
  </outline>
</glyph>
<glyph name="lcaron" format="2">
  <advance width="355"/>
  <unicode hex="013E"/>
  <outline>
    <contour>
      <point x="316" y="971" type="line"/>
      <point x="-55" y="161" type="line" smooth="yes"/>
      <point x="-95" y="72"/>
      <point x="-77" y="0"/>
      <point x="-35" y="0" type="curve" smooth="yes"/>
      <point x="34" y="0"/>
      <point x="129" y="146"/>
      <point x="190" y="280" type="curve"/>
      <point x="187" y="282" type="line"/>
      <point x="128" y="154"/>
      <point x="32" y="4"/>
      <point x="-34" y="4" type="curve" smooth="yes"/>
      <point x="-73" y="4"/>
      <point x="-83" y="72"/>
      <point x="-46" y="152" type="curve" smooth="yes"/>
      <point x="336" y="971" type="line"/>
    </contour>
    <contour>
      <point x="398" y="774" type="curve" smooth="yes"/>
      <point x="383" y="774"/>
      <point x="369" y="761"/>
      <point x="369" y="747" type="curve" smooth="yes"/>
      <point x="369" y="739"/>
      <point x="373" y="731"/>
      <point x="384" y="731" type="curve" smooth="yes"/>
      <point x="386" y="731"/>
      <point x="390" y="731"/>
      <point x="392" y="732" type="curve"/>
      <point x="393" y="729"/>
      <point x="395" y="725"/>
      <point x="391" y="718" type="curve"/>
      <point x="377" y="698"/>
      <point x="362" y="680"/>
      <point x="342" y="666" type="curve"/>
      <point x="344" y="662" type="line"/>
      <point x="373" y="682"/>
      <point x="414" y="723"/>
      <point x="414" y="753" type="curve" smooth="yes"/>
      <point x="414" y="766"/>
      <point x="406" y="774"/>
    </contour>
  </outline>
</glyph>
<glyph name="Lslash" format="2">
  <advance width="642"/>
  <unicode hex="0141"/>
  <outline>
    <contour>
      <point x="130" y="229" type="line"/>
      <point x="277" y="229" type="line"/>
      <point x="210" y="145"/>
      <point x="125" y="74"/>
      <point x="23" y="44" type="curve"/>
      <point x="-9" y="53"/>
      <point x="-47" y="62"/>
      <point x="-92" y="62" type="curve" smooth="yes"/>
      <point x="-144" y="62"/>
      <point x="-138" y="23"/>
      <point x="-83" y="23" type="curve" smooth="yes"/>
      <point x="-45" y="23"/>
      <point x="-10" y="26"/>
      <point x="22" y="33" type="curve"/>
      <point x="96" y="7"/>
      <point x="172" y="-39"/>
      <point x="239" y="-81" type="curve" smooth="yes"/>
      <point x="352" y="-152"/>
      <point x="501" y="-240"/>
      <point x="648" y="-240" type="curve" smooth="yes"/>
      <point x="834" y="-240"/>
      <point x="940" y="-119"/>
      <point x="916" y="-33" type="curve"/>
      <point x="912" y="-35" type="line"/>
      <point x="935" y="-119"/>
      <point x="806" y="-224"/>
      <point x="624" y="-224" type="curve" smooth="yes"/>
      <point x="475" y="-224"/>
      <point x="358" y="-149"/>
      <point x="242" y="-76" type="curve" smooth="yes"/>
      <point x="173" y="-32"/>
      <point x="117" y="11"/>
      <point x="42" y="38" type="curve"/>
      <point x="155" y="67"/>
      <point x="237" y="138"/>
      <point x="304" y="229" type="curve"/>
      <point x="458" y="229" type="line"/>
      <point x="458" y="234" type="line"/>
      <point x="308" y="234" type="line"/>
      <point x="326" y="259"/>
      <point x="343" y="286"/>
      <point x="359" y="313" type="curve"/>
      <point x="650" y="339"/>
      <point x="910" y="716"/>
      <point x="910" y="872" type="curve" smooth="yes"/>
      <point x="910" y="918"/>
      <point x="885" y="970"/>
      <point x="836" y="970" type="curve" smooth="yes"/>
      <point x="660" y="970"/>
      <point x="467" y="554"/>
      <point x="374" y="380" type="curve" smooth="yes"/>
      <point x="363" y="359"/>
      <point x="351" y="338"/>
      <point x="339" y="317" type="curve"/>
      <point x="329" y="317" type="line" smooth="yes"/>
      <point x="182" y="317"/>
      <point x="54" y="414"/>
      <point x="54" y="567" type="curve" smooth="yes"/>
      <point x="54" y="711"/>
      <point x="168" y="817"/>
      <point x="287" y="817" type="curve" smooth="yes"/>
      <point x="373" y="817"/>
      <point x="428" y="760"/>
      <point x="428" y="693" type="curve" smooth="yes"/>
      <point x="428" y="627"/>
      <point x="376" y="543"/>
      <point x="292" y="543" type="curve" smooth="yes"/>
      <point x="280" y="543"/>
      <point x="237" y="545"/>
      <point x="221" y="586" type="curve"/>
      <point x="216" y="584" type="line"/>
      <point x="235" y="545"/>
      <point x="271" y="539"/>
      <point x="295" y="539" type="curve" smooth="yes"/>
      <point x="385" y="539"/>
      <point x="438" y="624"/>
      <point x="438" y="692" type="curve" smooth="yes"/>
      <point x="438" y="766"/>
      <point x="376" y="821"/>
      <point x="286" y="821" type="curve" smooth="yes"/>
      <point x="162" y="821"/>
      <point x="37" y="718"/>
      <point x="37" y="570" type="curve" smooth="yes"/>
      <point x="37" y="414"/>
      <point x="174" y="312"/>
      <point x="328" y="312" type="curve" smooth="yes"/>
      <point x="336" y="312" type="line"/>
      <point x="319" y="285"/>
      <point x="301" y="259"/>
      <point x="281" y="234" type="curve"/>
      <point x="130" y="234" type="line"/>
    </contour>
    <contour>
      <point x="835" y="966" type="curve" smooth="yes"/>
      <point x="879" y="966"/>
      <point x="899" y="928"/>
      <point x="899" y="885" type="curve" smooth="yes"/>
      <point x="899" y="732"/>
      <point x="649" y="348"/>
      <point x="363" y="319" type="curve"/>
      <point x="376" y="341"/>
      <point x="388" y="364"/>
      <point x="400" y="387" type="curve" smooth="yes"/>
      <point x="490" y="561"/>
      <point x="674" y="966"/>
    </contour>
    <contour>
      <point x="-83" y="29" type="curve" smooth="yes"/>
      <point x="-123" y="29"/>
      <point x="-118" y="54"/>
      <point x="-83" y="54" type="curve" smooth="yes"/>
      <point x="-55" y="54"/>
      <point x="-26" y="48"/>
      <point x="4" y="39" type="curve"/>
      <point x="-24" y="32"/>
      <point x="-53" y="29"/>
    </contour>
  </outline>
</glyph>
<glyph name="lslash" format="2">
  <advance width="187"/>
  <unicode hex="0142"/>
  <outline>
    <contour>
      <point x="316" y="971" type="line"/>
      <point x="81" y="459" type="line"/>
      <point x="7" y="459" type="line"/>
      <point x="7" y="454" type="line"/>
      <point x="79" y="454" type="line"/>
      <point x="-55" y="161" type="line" smooth="yes"/>
      <point x="-95" y="72"/>
      <point x="-77" y="0"/>
      <point x="-35" y="0" type="curve" smooth="yes"/>
      <point x="34" y="0"/>
      <point x="129" y="146"/>
      <point x="190" y="280" type="curve"/>
      <point x="187" y="282" type="line"/>
      <point x="128" y="154"/>
      <point x="32" y="4"/>
      <point x="-34" y="4" type="curve" smooth="yes"/>
      <point x="-73" y="4"/>
      <point x="-83" y="72"/>
      <point x="-46" y="152" type="curve" smooth="yes"/>
      <point x="94" y="454" type="line"/>
      <point x="173" y="454" type="line"/>
      <point x="173" y="459" type="line"/>
      <point x="97" y="459" type="line"/>
      <point x="336" y="971" type="line"/>
    </contour>
  </outline>
</glyph>
<glyph name="ncommaaccent" format="2">
  <advance width="561"/>
  <unicode hex="0146"/>
  <outline>
    <contour>
      <point x="130" y="-138" type="curve" smooth="yes"/>
      <point x="115" y="-138"/>
      <point x="101" y="-151"/>
      <point x="101" y="-165" type="curve" smooth="yes"/>
      <point x="101" y="-173"/>
      <point x="105" y="-181"/>
      <point x="116" y="-181" type="curve" smooth="yes"/>
      <point x="118" y="-181"/>
      <point x="122" y="-181"/>
      <point x="124" y="-180" type="curve"/>
      <point x="125" y="-183"/>
      <point x="127" y="-187"/>
      <point x="123" y="-194" type="curve"/>
      <point x="109" y="-214"/>
      <point x="94" y="-232"/>
      <point x="74" y="-246" type="curve"/>
      <point x="76" y="-250" type="line"/>
      <point x="105" y="-230"/>
      <point x="146" y="-189"/>
      <point x="146" y="-159" type="curve" smooth="yes"/>
      <point x="146" y="-146"/>
      <point x="138" y="-138"/>
    </contour>
    <contour>
      <point x="339" y="0" type="curve" smooth="yes"/>
      <point x="408" y="0"/>
      <point x="503" y="146"/>
      <point x="564" y="280" type="curve"/>
      <point x="561" y="282" type="line"/>
      <point x="502" y="154"/>
      <point x="407" y="5"/>
      <point x="340" y="5" type="curve" smooth="yes"/>
      <point x="314" y="5"/>
      <point x="295" y="39"/>
      <point x="301" y="86" type="curve" smooth="yes"/>
      <point x="310" y="164"/>
      <point x="354" y="227"/>
      <point x="400" y="299" type="curve" smooth="yes"/>
      <point x="439" y="358"/>
      <point x="478" y="434"/>
      <point x="485" y="490" type="curve" smooth="yes"/>
      <point x="492" y="545"/>
      <point x="459" y="565"/>
      <point x="435" y="565" type="curve" smooth="yes"/>
      <point x="388" y="565"/>
      <point x="321" y="502"/>
      <point x="257" y="422" type="curve"/>
      <point x="292" y="508"/>
      <point x="269" y="565"/>
      <point x="228" y="565" type="curve" smooth="yes"/>
      <point x="158" y="565"/>
      <point x="62" y="416"/>
      <point x="0" y="282" type="curve"/>
      <point x="3" y="280" type="line"/>
      <point x="63" y="408"/>
      <point x="160" y="560"/>
      <point x="228" y="560" type="curve" smooth="yes"/>
      <point x="267" y="560"/>
      <point x="285" y="503"/>
      <point x="247" y="423" type="curve" smooth="yes"/>
      <point x="230" y="387" type="line"/>
      <point x="172" y="310"/>
      <point x="120" y="224"/>
      <point x="93" y="164" type="curve" smooth="yes"/>
      <point x="49" y="73"/>
      <point x="20" y="0"/>
      <point x="40" y="0" type="curve" smooth="yes"/>
      <point x="56" y="0"/>
      <point x="94" y="48"/>
      <point x="155" y="188" type="curve" smooth="yes"/>
      <point x="247" y="401" type="line"/>
      <point x="314" y="488"/>
      <point x="387" y="560"/>
      <point x="435" y="560" type="curve" smooth="yes"/>
      <point x="457" y="560"/>
      <point x="485" y="548"/>
      <point x="478" y="493" type="curve" smooth="yes"/>
      <point x="470" y="423"/>
      <point x="422" y="371"/>
      <point x="382" y="306" type="curve" smooth="yes"/>
      <point x="337" y="235"/>
      <point x="302" y="167"/>
      <point x="293" y="92" type="curve" smooth="yes"/>
      <point x="288" y="43"/>
      <point x="310" y="0"/>
    </contour>
    <contour>
      <point x="40" y="5" type="curve" smooth="yes"/>
      <point x="26" y="5"/>
      <point x="53" y="73"/>
      <point x="97" y="161" type="curve" smooth="yes"/>
      <point x="121" y="213"/>
      <point x="166" y="288"/>
      <point x="216" y="359" type="curve"/>
      <point x="137" y="193" type="line" smooth="yes"/>
      <point x="59" y="29"/>
      <point x="48" y="5"/>
    </contour>
  </outline>
</glyph>
<glyph name="tcommaaccent" format="2">
  <advance width="186"/>
  <unicode hex="0163"/>
  <outline>
    <contour>
      <point x="-115" y="-138" type="curve" smooth="yes"/>
      <point x="-130" y="-138"/>
      <point x="-144" y="-151"/>
      <point x="-144" y="-165" type="curve" smooth="yes"/>
      <point x="-144" y="-173"/>
      <point x="-140" y="-181"/>
      <point x="-129" y="-181" type="curve" smooth="yes"/>
      <point x="-127" y="-181"/>
      <point x="-123" y="-181"/>
      <point x="-121" y="-180" type="curve"/>
      <point x="-120" y="-183"/>
      <point x="-118" y="-187"/>
      <point x="-122" y="-194" type="curve"/>
      <point x="-136" y="-214"/>
      <point x="-151" y="-232"/>
      <point x="-171" y="-246" type="curve"/>
      <point x="-169" y="-250" type="line"/>
      <point x="-140" y="-230"/>
      <point x="-99" y="-189"/>
      <point x="-99" y="-159" type="curve" smooth="yes"/>
      <point x="-99" y="-146"/>
      <point x="-107" y="-138"/>
    </contour>
    <contour>
      <point x="7" y="621" type="line"/>
      <point x="154" y="621" type="line"/>
      <point x="-56" y="161" type="line" smooth="yes"/>
      <point x="-97" y="72"/>
      <point x="-78" y="0"/>
      <point x="-36" y="0" type="curve" smooth="yes"/>
      <point x="33" y="0"/>
      <point x="128" y="146"/>
      <point x="189" y="280" type="curve"/>
      <point x="186" y="282" type="line"/>
      <point x="127" y="154"/>
      <point x="31" y="4"/>
      <point x="-35" y="4" type="curve" smooth="yes"/>
      <point x="-74" y="4"/>
      <point x="-84" y="72"/>
      <point x="-47" y="152" type="curve" smooth="yes"/>
      <point x="173" y="621" type="line"/>
      <point x="335" y="621" type="line"/>
      <point x="335" y="625" type="line"/>
      <point x="175" y="625" type="line"/>
      <point x="255" y="794" type="line"/>
      <point x="234" y="794" type="line"/>
      <point x="156" y="625" type="line"/>
      <point x="7" y="625" type="line"/>
    </contour>
  </outline>
</glyph>
<glyph name="Zacute" format="2">
  <advance width="511"/>
  <unicode hex="0179"/>
  <outline>
    <contour>
      <point x="842" y="922" type="curve" smooth="yes"/>
      <point x="811" y="901"/>
      <point x="778" y="875"/>
      <point x="745" y="846" type="curve"/>
      <point x="631" y="858"/>
      <point x="502" y="906"/>
      <point x="413" y="906" type="curve" smooth="yes"/>
      <point x="200" y="906"/>
      <point x="13" y="725"/>
      <point x="13" y="533" type="curve" smooth="yes"/>
      <point x="13" y="418"/>
      <point x="76" y="304"/>
      <point x="219" y="300" type="curve" smooth="yes"/>
      <point x="235" y="300"/>
      <point x="251" y="302"/>
      <point x="267" y="304" type="curve"/>
      <point x="142" y="174"/>
      <point x="-24" y="54"/>
      <point x="-191" y="32" type="curve"/>
      <point x="-208" y="35"/>
      <point x="-226" y="37"/>
      <point x="-246" y="37" type="curve" smooth="yes"/>
      <point x="-262" y="37"/>
      <point x="-256" y="23"/>
      <point x="-245" y="23" type="curve" smooth="yes"/>
      <point x="-230" y="23"/>
      <point x="-215" y="23"/>
      <point x="-200" y="24" type="curve"/>
      <point x="-103" y="5"/>
      <point x="16" y="-73"/>
      <point x="102" y="-128" type="curve" smooth="yes"/>
      <point x="215" y="-199"/>
      <point x="364" y="-287"/>
      <point x="511" y="-287" type="curve" smooth="yes"/>
      <point x="697" y="-287"/>
      <point x="803" y="-166"/>
      <point x="779" y="-80" type="curve"/>
      <point x="775" y="-82" type="line"/>
      <point x="798" y="-166"/>
      <point x="669" y="-271"/>
      <point x="487" y="-271" type="curve" smooth="yes"/>
      <point x="338" y="-271"/>
      <point x="220" y="-197"/>
      <point x="104" y="-124" type="curve" smooth="yes"/>
      <point x="35" y="-80"/>
      <point x="-42" y="-16"/>
      <point x="-117" y="11" type="curve" smooth="yes"/>
      <point x="-133" y="17"/>
      <point x="-151" y="23"/>
      <point x="-171" y="28" type="curve"/>
      <point x="10" y="52"/>
      <point x="151" y="165"/>
      <point x="279" y="306" type="curve"/>
      <point x="422" y="337"/>
      <point x="563" y="470"/>
      <point x="563" y="622" type="curve" smooth="yes"/>
      <point x="563" y="629"/>
      <point x="562" y="636"/>
      <point x="561" y="643" type="curve"/>
      <point x="622" y="713"/>
      <point x="686" y="782"/>
      <point x="747" y="838" type="curve"/>
      <point x="759" y="837"/>
      <point x="771" y="837"/>
      <point x="783" y="837" type="curve" smooth="yes"/>
      <point x="828" y="837"/>
      <point x="968" y="877"/>
      <point x="968" y="934" type="curve" smooth="yes"/>
      <point x="968" y="950"/>
      <point x="960" y="961"/>
      <point x="943" y="961" type="curve" smooth="yes"/>
      <point x="925" y="961"/>
      <point x="892" y="956"/>
    </contour>
    <contour>
      <point x="415" y="764" type="curve" smooth="yes"/>
      <point x="310" y="764"/>
      <point x="188" y="671"/>
      <point x="188" y="581" type="curve" smooth="yes"/>
      <point x="188" y="562"/>
      <point x="195" y="547"/>
      <point x="205" y="529" type="curve"/>
      <point x="210" y="531" type="line"/>
      <point x="203" y="546"/>
      <point x="200" y="560"/>
      <point x="200" y="575" type="curve" smooth="yes"/>
      <point x="200" y="667"/>
      <point x="307" y="758"/>
      <point x="414" y="758" type="curve" smooth="yes"/>
      <point x="481" y="758"/>
      <point x="540" y="719"/>
      <point x="545" y="636" type="curve"/>
      <point x="460" y="538"/>
      <point x="383" y="439"/>
      <point x="329" y="374" type="curve" smooth="yes"/>
      <point x="311" y="353"/>
      <point x="293" y="331"/>
      <point x="273" y="310" type="curve"/>
      <point x="259" y="307"/>
      <point x="245" y="305"/>
      <point x="231" y="305" type="curve" smooth="yes"/>
      <point x="82" y="305"/>
      <point x="25" y="411"/>
      <point x="25" y="519" type="curve" smooth="yes"/>
      <point x="25" y="680"/>
      <point x="192" y="897"/>
      <point x="422" y="897" type="curve" smooth="yes"/>
      <point x="507" y="897"/>
      <point x="629" y="851"/>
      <point x="738" y="839" type="curve"/>
      <point x="679" y="785"/>
      <point x="618" y="720"/>
      <point x="560" y="653" type="curve"/>
      <point x="546" y="726"/>
      <point x="485" y="764"/>
    </contour>
    <contour>
      <point x="286" y="313" type="curve"/>
      <point x="349" y="387" type="line" smooth="yes"/>
      <point x="399" y="447"/>
      <point x="469" y="536"/>
      <point x="546" y="625" type="curve"/>
      <point x="546" y="623" type="line" smooth="yes"/>
      <point x="546" y="474"/>
      <point x="417" y="347"/>
    </contour>
    <contour>
      <point x="846" y="919" type="curve" smooth="yes"/>
      <point x="886" y="948"/>
      <point x="914" y="951"/>
      <point x="929" y="951" type="curve" smooth="yes"/>
      <point x="942" y="951"/>
      <point x="948" y="944"/>
      <point x="948" y="934" type="curve" smooth="yes"/>
      <point x="948" y="894"/>
      <point x="858" y="843"/>
      <point x="797" y="843" type="curve" smooth="yes"/>
      <point x="783" y="843"/>
      <point x="768" y="843"/>
      <point x="754" y="845" type="curve"/>
      <point x="786" y="874"/>
      <point x="816" y="899"/>
    </contour>
    <contour>
      <point x="840" y="1126" type="line"/>
      <point x="973" y="1191" type="line" smooth="yes"/>
      <point x="982" y="1195"/>
      <point x="989" y="1200"/>
      <point x="989" y="1209" type="curve" smooth="yes"/>
      <point x="989" y="1216"/>
      <point x="985" y="1220"/>
      <point x="977" y="1220" type="curve" smooth="yes"/>
      <point x="969" y="1220"/>
      <point x="961" y="1216"/>
      <point x="957" y="1213" type="curve" smooth="yes"/>
      <point x="838" y="1128" type="line"/>
    </contour>
  </outline>
</glyph>
<glyph name="ohorn" format="2">
  <advance width="396"/>
  <unicode hex="01A1"/>
  <outline>
    <contour>
      <point x="316" y="398" type="curve" smooth="yes"/>
      <point x="316" y="444"/>
      <point x="298" y="476"/>
      <point x="271" y="476" type="curve" smooth="yes"/>
      <point x="226" y="476"/>
      <point x="158" y="388"/>
      <point x="147" y="292" type="curve" smooth="yes"/>
      <point x="138" y="226"/>
      <point x="155" y="161"/>
      <point x="202" y="142" type="curve"/>
      <point x="146" y="54"/>
      <point x="81" y="-7"/>
      <point x="34" y="-7" type="curve" smooth="yes"/>
      <point x="-8" y="-7"/>
      <point x="-27" y="38"/>
      <point x="-23" y="107" type="curve" smooth="yes"/>
      <point x="-20" y="163"/>
      <point x="-8" y="217"/>
      <point x="16" y="275" type="curve" smooth="yes"/>
      <point x="77" y="430"/>
      <point x="183" y="557"/>
      <point x="253" y="557" type="curve" smooth="yes"/>
      <point x="282" y="557"/>
      <point x="307" y="543"/>
      <point x="315" y="508" type="curve"/>
      <point x="318" y="512" type="line"/>
      <point x="308" y="544"/>
      <point x="285" y="563"/>
      <point x="254" y="563" type="curve" smooth="yes"/>
      <point x="175" y="563"/>
      <point x="66" y="439"/>
      <point x="0" y="282" type="curve" smooth="yes"/>
      <point x="-23" y="224"/>
      <point x="-34" y="173"/>
      <point x="-37" y="116" type="curve" smooth="yes"/>
      <point x="-41" y="40"/>
      <point x="-16" y="-12"/>
      <point x="33" y="-12" type="curve" smooth="yes"/>
      <point x="85" y="-12"/>
      <point x="157" y="52"/>
      <point x="215" y="138" type="curve"/>
      <point x="221" y="137"/>
      <point x="226" y="137"/>
      <point x="232" y="137" type="curve" smooth="yes"/>
      <point x="286" y="137"/>
      <point x="359" y="197"/>
      <point x="399" y="280" type="curve"/>
      <point x="396" y="282" type="line"/>
      <point x="357" y="201"/>
      <point x="284" y="141"/>
      <point x="233" y="141" type="curve" smooth="yes"/>
      <point x="227" y="141"/>
      <point x="223" y="141"/>
      <point x="218" y="142" type="curve"/>
      <point x="267" y="218"/>
      <point x="316" y="317"/>
    </contour>
    <contour>
      <point x="205" y="146" type="curve"/>
      <point x="158" y="164"/>
      <point x="146" y="228"/>
      <point x="154" y="289" type="curve" smooth="yes"/>
      <point x="166" y="387"/>
      <point x="229" y="472"/>
      <point x="272" y="472" type="curve" smooth="yes"/>
      <point x="292" y="472"/>
      <point x="303" y="450"/>
      <point x="303" y="415" type="curve" smooth="yes"/>
      <point x="303" y="316"/>
      <point x="250" y="215"/>
    </contour>
  </outline>
</glyph>
<glyph name="dotaccent" format="2">
  <advance width="187"/>
  <unicode hex="02D9"/>
  <outline>
    <contour>
      <point x="197" y="735" type="curve"/>
      <point x="195" y="726"/>
      <point x="199" y="717"/>
      <point x="210" y="717" type="curve" smooth="yes"/>
      <point x="220" y="717"/>
      <point x="231" y="724"/>
      <point x="234" y="735" type="curve"/>
      <point x="238" y="746"/>
      <point x="232" y="754"/>
      <point x="222" y="754" type="curve" smooth="yes"/>
      <point x="211" y="754"/>
      <point x="201" y="746"/>
    </contour>
  </outline>
</glyph>
<glyph name="fraction" format="2">
  <advance width="416"/>
  <unicode hex="2044"/>
  <outline>
    <contour>
      <point x="14" y="-123" type="line"/>
      <point x="14" y="-123"/>
      <point x="471" y="773"/>
      <point x="471" y="773" type="curve"/>
      <point x="467" y="775" type="line"/>
      <point x="467" y="775"/>
      <point x="10" y="-121"/>
      <point x="10" y="-121" type="curve"/>
    </contour>
  </outline>
</glyph>
<glyph name="fi" format="2">
  <advance width="402"/>
  <unicode hex="FB01"/>
  <outline>
    <contour>
      <point x="18" y="483" type="line"/>
      <point x="93" y="483" type="line"/>
      <point x="31" y="360"/>
      <point x="-25" y="234"/>
      <point x="-72" y="128" type="curve" smooth="yes"/>
      <point x="-162" y="-66"/>
      <point x="-336" y="-455"/>
      <point x="-555" y="-438" type="curve" smooth="yes"/>
      <point x="-600" y="-435"/>
      <point x="-624" y="-403"/>
      <point x="-619" y="-364" type="curve"/>
      <point x="-618" y="-344"/>
      <point x="-606" y="-307"/>
      <point x="-581" y="-304" type="curve"/>
      <point x="-584" y="-303" type="line"/>
      <point x="-608" y="-306"/>
      <point x="-628" y="-338"/>
      <point x="-630" y="-357" type="curve" smooth="yes"/>
      <point x="-634" y="-398"/>
      <point x="-608" y="-438"/>
      <point x="-556" y="-442" type="curve" smooth="yes"/>
      <point x="-437" y="-451"/>
      <point x="-338" y="-375"/>
      <point x="-256" y="-261" type="curve" smooth="yes"/>
      <point x="-176" y="-151"/>
      <point x="-113" y="-5"/>
      <point x="-55" y="125" type="curve" smooth="yes"/>
      <point x="-9" y="233"/>
      <point x="45" y="360"/>
      <point x="105" y="483" type="curve"/>
      <point x="253" y="483" type="line"/>
      <point x="253" y="487" type="line"/>
      <point x="107" y="487" type="line"/>
      <point x="119" y="513"/>
      <point x="133" y="538"/>
      <point x="146" y="564" type="curve"/>
      <point x="159" y="562"/>
      <point x="172" y="562"/>
      <point x="186" y="562" type="curve" smooth="yes"/>
      <point x="424" y="562"/>
      <point x="615" y="778"/>
      <point x="628" y="895" type="curve" smooth="yes"/>
      <point x="635" y="949"/>
      <point x="598" y="996"/>
      <point x="550" y="996" type="curve" smooth="yes"/>
      <point x="409" y="996"/>
      <point x="263" y="799"/>
      <point x="138" y="569" type="curve"/>
      <point x="7" y="586"/>
      <point x="-86" y="673"/>
      <point x="-71" y="804" type="curve" smooth="yes"/>
      <point x="-58" y="929"/>
      <point x="39" y="1019"/>
      <point x="144" y="1019" type="curve" smooth="yes"/>
      <point x="218" y="1019"/>
      <point x="276" y="963"/>
      <point x="268" y="898" type="curve" smooth="yes"/>
      <point x="261" y="838"/>
      <point x="220" y="777"/>
      <point x="142" y="777" type="curve" smooth="yes"/>
      <point x="128" y="777"/>
      <point x="90" y="777"/>
      <point x="76" y="802" type="curve"/>
      <point x="71" y="800" type="line"/>
      <point x="88" y="773"/>
      <point x="128" y="773"/>
      <point x="142" y="773" type="curve" smooth="yes"/>
      <point x="225" y="773"/>
      <point x="271" y="835"/>
      <point x="277" y="896" type="curve" smooth="yes"/>
      <point x="286" y="964"/>
      <point x="224" y="1023"/>
      <point x="145" y="1023" type="curve" smooth="yes"/>
      <point x="33" y="1023"/>
      <point x="-71" y="932"/>
      <point x="-85" y="806" type="curve" smooth="yes"/>
      <point x="-100" y="672"/>
      <point x="-1" y="582"/>
      <point x="136" y="565" type="curve"/>
      <point x="95" y="487" type="line"/>
      <point x="18" y="487" type="line"/>
    </contour>
    <contour>
      <point x="548" y="992" type="curve" smooth="yes"/>
      <point x="589" y="992"/>
      <point x="625" y="955"/>
      <point x="620" y="903" type="curve" smooth="yes"/>
      <point x="607" y="788"/>
      <point x="422" y="566"/>
      <point x="186" y="566" type="curve" smooth="yes"/>
      <point x="173" y="566"/>
      <point x="160" y="567"/>
      <point x="148" y="568" type="curve"/>
      <point x="268" y="797"/>
      <point x="408" y="992"/>
    </contour>
    <contour>
      <point x="338" y="550" type="line"/>
      <point x="215" y="282" type="line"/>
      <point x="160" y="161" type="line" smooth="yes"/>
      <point x="120" y="72"/>
      <point x="138" y="0"/>
      <point x="180" y="0" type="curve" smooth="yes"/>
      <point x="249" y="0"/>
      <point x="344" y="146"/>
      <point x="405" y="280" type="curve"/>
      <point x="402" y="282" type="line"/>
      <point x="343" y="154"/>
      <point x="247" y="4"/>
      <point x="181" y="4" type="curve" smooth="yes"/>
      <point x="142" y="4"/>
      <point x="132" y="72"/>
      <point x="169" y="152" type="curve" smooth="yes"/>
      <point x="359" y="550" type="line"/>
    </contour>
    <contour>
      <point x="412" y="735" type="curve"/>
      <point x="410" y="726"/>
      <point x="414" y="717"/>
      <point x="425" y="717" type="curve" smooth="yes"/>
      <point x="435" y="717"/>
      <point x="446" y="724"/>
      <point x="449" y="735" type="curve"/>
      <point x="453" y="746"/>
      <point x="447" y="754"/>
      <point x="437" y="754" type="curve" smooth="yes"/>
      <point x="426" y="754"/>
      <point x="416" y="746"/>
    </contour>
  </outline>
</glyph>
<glyph name="ampersand.1" format="2">
  <advance width="1075"/>
  <outline>
    <contour>
      <point x="129" y="186" type="curve" smooth="yes"/>
      <point x="129" y="45"/>
      <point x="228" y="-23"/>
      <point x="337" y="-23" type="curve" smooth="yes"/>
      <point x="461" y="-23"/>
      <point x="577" y="65"/>
      <point x="638" y="164" type="curve"/>
      <point x="670" y="143"/>
      <point x="707" y="131"/>
      <point x="751" y="131" type="curve" smooth="yes"/>
      <point x="913" y="131"/>
      <point x="1001" y="289"/>
      <point x="1001" y="415" type="curve" smooth="yes"/>
      <point x="1001" y="566"/>
      <point x="891" y="693"/>
      <point x="729" y="738" type="curve"/>
      <point x="736" y="754"/>
      <point x="740" y="771"/>
      <point x="740" y="789" type="curve" smooth="yes"/>
      <point x="740" y="814"/>
      <point x="720" y="830"/>
      <point x="698" y="830" type="curve" smooth="yes"/>
      <point x="674" y="830"/>
      <point x="630" y="813"/>
      <point x="588" y="755" type="curve"/>
      <point x="342" y="751"/>
      <point x="89" y="629"/>
      <point x="89" y="388" type="curve" smooth="yes"/>
      <point x="89" y="344"/>
      <point x="106" y="298"/>
      <point x="139" y="262" type="curve"/>
      <point x="132" y="238"/>
      <point x="129" y="213"/>
    </contour>
    <contour>
      <point x="681" y="298" type="curve" smooth="yes"/>
      <point x="681" y="401"/>
      <point x="612" y="446"/>
      <point x="537" y="446" type="curve" smooth="yes"/>
      <point x="529" y="446"/>
      <point x="522" y="445"/>
      <point x="514" y="444" type="curve"/>
      <point x="514" y="465" type="line" smooth="yes"/>
      <point x="514" y="503"/>
      <point x="516" y="538"/>
      <point x="521" y="569" type="curve"/>
      <point x="596" y="605"/>
      <point x="692" y="660"/>
      <point x="727" y="734" type="curve"/>
      <point x="879" y="694"/>
      <point x="987" y="577"/>
      <point x="987" y="421" type="curve" smooth="yes"/>
      <point x="987" y="297"/>
      <point x="895" y="143"/>
      <point x="743" y="143" type="curve" smooth="yes"/>
      <point x="704" y="143"/>
      <point x="671" y="153"/>
      <point x="642" y="171" type="curve"/>
      <point x="666" y="213"/>
      <point x="681" y="258"/>
    </contour>
    <contour>
      <point x="328" y="186" type="curve" smooth="yes"/>
      <point x="335" y="186" type="line"/>
      <point x="347" y="162"/>
      <point x="369" y="145"/>
      <point x="397" y="145" type="curve" smooth="yes"/>
      <point x="404" y="145"/>
      <point x="411" y="145"/>
      <point x="418" y="149" type="curve"/>
      <point x="416" y="152" type="line"/>
      <point x="411" y="149"/>
      <point x="406" y="149"/>
      <point x="401" y="149" type="curve" smooth="yes"/>
      <point x="378" y="149"/>
      <point x="360" y="165"/>
      <point x="350" y="187" type="curve"/>
      <point x="421" y="195"/>
      <point x="497" y="240"/>
      <point x="500" y="294" type="curve"/>
      <point x="496" y="294" type="line"/>
      <point x="493" y="242"/>
      <point x="416" y="199"/>
      <point x="348" y="191" type="curve"/>
      <point x="341" y="209"/>
      <point x="337" y="230"/>
      <point x="337" y="250" type="curve" smooth="yes"/>
      <point x="337" y="360"/>
      <point x="422" y="431"/>
      <point x="508" y="442" type="curve"/>
      <point x="513" y="333"/>
      <point x="552" y="228"/>
      <point x="625" y="172" type="curve"/>
      <point x="569" y="74"/>
      <point x="457" y="-17"/>
      <point x="339" y="-17" type="curve" smooth="yes"/>
      <point x="237" y="-17"/>
      <point x="146" y="49"/>
      <point x="146" y="180" type="curve" smooth="yes"/>
      <point x="146" y="203"/>
      <point x="148" y="226"/>
      <point x="154" y="247" type="curve"/>
      <point x="194" y="210"/>
      <point x="253" y="186"/>
    </contour>
    <contour>
      <point x="481" y="557" type="curve"/>
      <point x="334" y="486"/>
      <point x="190" y="408"/>
      <point x="144" y="277" type="curve"/>
      <point x="120" y="310"/>
      <point x="109" y="349"/>
      <point x="109" y="386" type="curve" smooth="yes"/>
      <point x="109" y="620"/>
      <point x="345" y="741"/>
      <point x="583" y="748" type="curve"/>
      <point x="575" y="737"/>
      <point x="567" y="724"/>
      <point x="560" y="710" type="curve" smooth="yes"/>
      <point x="541" y="674"/>
      <point x="525" y="628"/>
      <point x="516" y="572" type="curve"/>
      <point x="503" y="567"/>
      <point x="491" y="561"/>
    </contour>
    <contour>
      <point x="321" y="247" type="curve" smooth="yes"/>
      <point x="321" y="227"/>
      <point x="325" y="207"/>
      <point x="333" y="190" type="curve"/>
      <point x="328" y="190" type="line" smooth="yes"/>
      <point x="251" y="190"/>
      <point x="194" y="219"/>
      <point x="158" y="260" type="curve"/>
      <point x="203" y="403"/>
      <point x="363" y="490"/>
      <point x="483" y="552" type="curve"/>
      <point x="515" y="566" type="line"/>
      <point x="510" y="536"/>
      <point x="508" y="502"/>
      <point x="508" y="465" type="curve" smooth="yes"/>
      <point x="508" y="444" type="line"/>
      <point x="414" y="431"/>
      <point x="321" y="358"/>
    </contour>
    <contour>
      <point x="530" y="443" type="curve" smooth="yes"/>
      <point x="599" y="443"/>
      <point x="663" y="397"/>
      <point x="663" y="296" type="curve" smooth="yes"/>
      <point x="663" y="259"/>
      <point x="650" y="219"/>
      <point x="629" y="179" type="curve"/>
      <point x="557" y="231"/>
      <point x="519" y="334"/>
      <point x="514" y="442" type="curve"/>
      <point x="519" y="443"/>
      <point x="525" y="443"/>
    </contour>
    <contour>
      <point x="614" y="749" type="line" smooth="yes"/>
      <point x="650" y="748"/>
      <point x="684" y="744"/>
      <point x="717" y="736" type="curve"/>
      <point x="687" y="663"/>
      <point x="594" y="609"/>
      <point x="522" y="575" type="curve"/>
      <point x="531" y="627"/>
      <point x="546" y="670"/>
      <point x="564" y="705" type="curve" smooth="yes"/>
      <point x="573" y="722"/>
      <point x="582" y="736"/>
      <point x="591" y="749" type="curve"/>
    </contour>
    <contour>
      <point x="690" y="818" type="curve" smooth="yes"/>
      <point x="713" y="818"/>
      <point x="726" y="799"/>
      <point x="726" y="783" type="curve" smooth="yes"/>
      <point x="726" y="768"/>
      <point x="723" y="754"/>
      <point x="718" y="740" type="curve"/>
      <point x="684" y="749"/>
      <point x="648" y="754"/>
      <point x="611" y="755" type="curve" smooth="yes"/>
      <point x="595" y="755" type="line"/>
      <point x="633" y="804"/>
      <point x="668" y="818"/>
    </contour>
  </outline>
</glyph>
<glyph name="init.init" format="2">
  <outline>
    <contour>
      <point x="0" y="282" type="line"/>
      <point x="-47" y="179"/>
      <point x="-83" y="71"/>
      <point x="-83" y="-42" type="curve" smooth="yes"/>
      <point x="-83" y="-140"/>
      <point x="-51" y="-222"/>
      <point x="24" y="-252" type="curve" smooth="yes"/>
      <point x="40" y="-258"/>
      <point x="62" y="-261"/>
      <point x="82" y="-261" type="curve" smooth="yes"/>
      <point x="138" y="-261"/>
      <point x="200" y="-217"/>
      <point x="200" y="-158" type="curve" smooth="yes"/>
      <point x="200" y="-131"/>
      <point x="188" y="-107"/>
      <point x="165" y="-108" type="curve"/>
      <point x="165" y="-112" type="line"/>
      <point x="185" y="-111"/>
      <point x="196" y="-133"/>
      <point x="196" y="-158" type="curve" smooth="yes"/>
      <point x="196" y="-220"/>
      <point x="129" y="-257"/>
      <point x="82" y="-257" type="curve" smooth="yes"/>
      <point x="-37" y="-257"/>
      <point x="-77" y="-133"/>
      <point x="-77" y="-36" type="curve" smooth="yes"/>
      <point x="-77" y="79"/>
      <point x="-44" y="178"/>
      <point x="3" y="280" type="curve"/>
    </contour>
  </outline>
</glyph>
<glyph name="o_y" format="2">
  <advance width="830"/>
  <outline>
    <contour>
      <point x="445" y="560" type="curve" smooth="yes"/>
      <point x="489" y="560"/>
      <point x="529" y="536"/>
      <point x="529" y="480" type="curve"/>
      <point x="536" y="478" type="line"/>
      <point x="536" y="541"/>
      <point x="493" y="565"/>
      <point x="445" y="565" type="curve" smooth="yes"/>
      <point x="403" y="565"/>
      <point x="357" y="542"/>
      <point x="315" y="506" type="curve"/>
      <point x="305" y="541"/>
      <point x="284" y="563"/>
      <point x="254" y="563" type="curve" smooth="yes"/>
      <point x="175" y="563"/>
      <point x="64" y="440"/>
      <point x="0" y="282" type="curve" smooth="yes"/>
      <point x="-24" y="224"/>
      <point x="-34" y="173"/>
      <point x="-37" y="116" type="curve" smooth="yes"/>
      <point x="-41" y="41"/>
      <point x="-16" y="-10"/>
      <point x="31" y="-12" type="curve" smooth="yes"/>
      <point x="110" y="-12"/>
      <point x="219" y="112"/>
      <point x="285" y="269" type="curve" smooth="yes"/>
      <point x="308" y="327"/>
      <point x="319" y="378"/>
      <point x="322" y="435" type="curve" smooth="yes"/>
      <point x="323" y="459"/>
      <point x="321" y="481"/>
      <point x="317" y="500" type="curve"/>
      <point x="358" y="536"/>
      <point x="404" y="560"/>
    </contour>
    <contour>
      <point x="664" y="357" type="line" smooth="yes"/>
      <point x="640" y="302"/>
      <point x="620" y="244"/>
      <point x="600" y="186" type="curve"/>
      <point x="529" y="89"/>
      <point x="448" y="5"/>
      <point x="399" y="5" type="curve" smooth="yes"/>
      <point x="370" y="5"/>
      <point x="348" y="39"/>
      <point x="354" y="86" type="curve" smooth="yes"/>
      <point x="363" y="157"/>
      <point x="406" y="220"/>
      <point x="451" y="285" type="curve" smooth="yes"/>
      <point x="490" y="344"/>
      <point x="529" y="420"/>
      <point x="536" y="476" type="curve"/>
      <point x="529" y="479" type="line"/>
      <point x="521" y="409"/>
      <point x="473" y="357"/>
      <point x="433" y="292" type="curve"/>
      <point x="389" y="228"/>
      <point x="355" y="160"/>
      <point x="346" y="92" type="curve" smooth="yes"/>
      <point x="341" y="43"/>
      <point x="363" y="0"/>
      <point x="399" y="0" type="curve" smooth="yes"/>
      <point x="448" y="0"/>
      <point x="524" y="77"/>
      <point x="594" y="169" type="curve"/>
      <point x="576" y="115"/>
      <point x="559" y="60"/>
      <point x="541" y="11" type="curve" smooth="yes"/>
      <point x="517" y="-55" type="line"/>
      <point x="462" y="-91"/>
      <point x="409" y="-122"/>
      <point x="363" y="-149" type="curve" smooth="yes"/>
      <point x="283" y="-196"/>
      <point x="192" y="-248"/>
      <point x="138" y="-314" type="curve" smooth="yes"/>
      <point x="112" y="-345"/>
      <point x="97" y="-383"/>
      <point x="96" y="-418" type="curve" smooth="yes"/>
      <point x="93" y="-459"/>
      <point x="114" y="-493"/>
      <point x="166" y="-497" type="curve" smooth="yes"/>
      <point x="237" y="-502"/>
      <point x="350" y="-444"/>
      <point x="428" y="-307" type="curve" smooth="yes"/>
      <point x="462" y="-246"/>
      <point x="490" y="-153"/>
      <point x="522" y="-58" type="curve"/>
      <point x="638" y="18"/>
      <point x="758" y="123"/>
      <point x="833" y="280" type="curve"/>
      <point x="830" y="282" type="line"/>
      <point x="757" y="128"/>
      <point x="638" y="26"/>
      <point x="524" y="-50" type="curve"/>
      <point x="531" y="-30"/>
      <point x="538" y="-9"/>
      <point x="546" y="11" type="curve" smooth="yes"/>
      <point x="565" y="64"/>
      <point x="587" y="128"/>
      <point x="612" y="194" type="curve"/>
      <point x="664" y="266"/>
      <point x="710" y="343"/>
      <point x="736" y="401" type="curve" smooth="yes"/>
      <point x="779" y="492"/>
      <point x="809" y="565"/>
      <point x="789" y="565" type="curve" smooth="yes"/>
      <point x="773" y="565"/>
      <point x="735" y="517"/>
      <point x="673" y="377" type="curve" smooth="yes"/>
    </contour>
    <contour>
      <point x="31" y="-7" type="curve"/>
      <point x="-8" y="-4"/>
      <point x="-27" y="41"/>
      <point x="-23" y="107" type="curve" smooth="yes"/>
      <point x="-20" y="163"/>
      <point x="-8" y="217"/>
      <point x="16" y="275" type="curve" smooth="yes"/>
      <point x="77" y="430"/>
      <point x="186" y="558"/>
      <point x="256" y="558" type="curve" smooth="yes"/>
      <point x="284" y="558"/>
      <point x="300" y="534"/>
      <point x="306" y="498" type="curve"/>
      <point x="233" y="432"/>
      <point x="175" y="328"/>
      <point x="175" y="242" type="curve" smooth="yes"/>
      <point x="175" y="208"/>
      <point x="187" y="176"/>
      <point x="214" y="176" type="curve" smooth="yes"/>
      <point x="217" y="176"/>
      <point x="219" y="176"/>
      <point x="222" y="177" type="curve"/>
      <point x="162" y="70"/>
      <point x="85" y="-7"/>
    </contour>
    <contour>
      <point x="410" y="-306" type="curve" smooth="yes"/>
      <point x="338" y="-435"/>
      <point x="232" y="-498"/>
      <point x="167" y="-493" type="curve" smooth="yes"/>
      <point x="122" y="-490"/>
      <point x="98" y="-464"/>
      <point x="100" y="-425" type="curve" smooth="yes"/>
      <point x="102" y="-389"/>
      <point x="120" y="-355"/>
      <point x="146" y="-322" type="curve" smooth="yes"/>
      <point x="203" y="-250"/>
      <point x="303" y="-189"/>
      <point x="364" y="-153" type="curve" smooth="yes"/>
      <point x="409" y="-127"/>
      <point x="461" y="-98"/>
      <point x="514" y="-63" type="curve"/>
      <point x="480" y="-156"/>
      <point x="447" y="-243"/>
    </contour>
    <contour>
      <point x="214" y="181" type="curve" smooth="yes"/>
      <point x="192" y="181"/>
      <point x="181" y="212"/>
      <point x="181" y="243" type="curve" smooth="yes"/>
      <point x="181" y="325"/>
      <point x="237" y="425"/>
      <point x="307" y="490" type="curve"/>
      <point x="308" y="476"/>
      <point x="309" y="461"/>
      <point x="308" y="444" type="curve" smooth="yes"/>
      <point x="305" y="388"/>
      <point x="293" y="334"/>
      <point x="269" y="276" type="curve" smooth="yes"/>
      <point x="257" y="245"/>
      <point x="242" y="215"/>
      <point x="227" y="187" type="curve"/>
      <point x="223" y="183"/>
      <point x="218" y="181"/>
    </contour>
    <contour>
      <point x="789" y="560" type="curve" smooth="yes"/>
      <point x="803" y="560"/>
      <point x="775" y="492"/>
      <point x="732" y="404" type="curve" smooth="yes"/>
      <point x="709" y="352"/>
      <point x="668" y="281"/>
      <point x="620" y="214" type="curve"/>
      <point x="639" y="262"/>
      <point x="659" y="311"/>
      <point x="681" y="357" type="curve" smooth="yes"/>
      <point x="688" y="372" type="line" smooth="yes"/>
      <point x="766" y="536"/>
      <point x="781" y="560"/>
    </contour>
  </outline>
</glyph>
